<svg width="500" height="500" viewBox="0 0 500 500" fill="none" xmlns="http://www.w3.org/2000/svg">
<path d="M333.22 84.3655C339.26 87.0455 343.11 89.9155 340.7 97.2555C337.653 106.542 334.337 115.752 330.75 124.885C330.712 124.981 330.697 125.083 330.706 125.185C330.715 125.287 330.747 125.385 330.8 125.473C330.854 125.56 330.927 125.634 331.013 125.688C331.1 125.742 331.198 125.776 331.3 125.785C336.973 126.312 342.47 127.582 347.79 129.595C348.21 129.755 348.433 129.612 348.46 129.165C349.36 116.875 353.1 105.065 362.86 97.2155" stroke="#838388" stroke-width="2"/>
<path d="M416.55 223.155C404.01 226.445 391.88 224.045 379.83 219.725C379.725 219.688 379.613 219.676 379.503 219.69C379.394 219.704 379.29 219.744 379.2 219.805L363.41 230.785C363.389 230.798 363.372 230.817 363.362 230.84C363.352 230.862 363.349 230.887 363.353 230.912C363.357 230.938 363.369 230.961 363.386 230.981C363.403 231.001 363.425 231.017 363.45 231.025C368.05 232.365 373.11 235.215 374.96 239.695C377.61 246.105 373.79 253.225 366.69 254.175C366.597 254.189 366.503 254.18 366.414 254.15C366.325 254.12 366.244 254.07 366.178 254.003C366.111 253.937 366.06 253.855 366.029 253.765C365.999 253.676 365.988 253.58 366 253.485L367.19 244.635C367.209 244.459 367.174 244.281 367.09 244.125C363.7 238.325 358.81 237.565 352.64 239.905C340.23 244.635 338.7 249.985 333.41 262.635C327.483 276.802 321.95 291.122 316.81 305.595C316.797 305.639 316.8 305.685 316.817 305.727C316.834 305.769 316.865 305.803 316.905 305.825C316.944 305.847 316.99 305.855 317.034 305.848C317.079 305.841 317.119 305.819 317.15 305.785C334.08 284.645 360.96 276.925 385.21 267.685C385.617 267.532 385.84 267.672 385.88 268.105L386.13 270.805C386.138 270.898 386.168 270.987 386.216 271.067C386.264 271.146 386.33 271.213 386.408 271.263C386.486 271.313 386.574 271.345 386.667 271.356C386.759 271.367 386.852 271.356 386.94 271.325C399.987 266.625 413.107 263.265 426.3 261.245" stroke="#838388" stroke-width="2"/>
<path d="M374.99 389.405C356.82 395.325 336.34 394.225 322.64 379.385C322.547 379.285 322.418 379.226 322.281 379.221C322.144 379.215 322.011 379.263 321.91 379.355C315.617 385.029 310.933 389.795 307.86 393.655C298.3 405.675 292.76 421.975 289.84 436.815" stroke="#838388" stroke-width="2"/>
<path d="M284.51 419.586C290.44 393.066 294.81 366.196 299.93 339.506C304.577 315.272 311.573 291.746 320.92 268.926C326.71 254.786 332.89 240.946 337.63 226.616C337.763 226.216 337.637 226.099 337.25 226.266L327.1 230.676C326.733 230.836 326.533 230.716 326.5 230.316C325.853 222.616 325.88 214.936 326.58 207.276C327.67 195.266 334.12 189.026 344.64 184.056C344.947 183.909 345.04 183.676 344.92 183.356C341.887 175.302 340.393 166.969 340.44 158.356C340.447 157.982 340.27 157.749 339.91 157.656C332.36 155.576 325.02 152.706 319.27 147.216C319.222 147.171 319.165 147.136 319.103 147.113C319.041 147.09 318.975 147.08 318.909 147.082C318.843 147.085 318.778 147.101 318.718 147.129C318.658 147.157 318.604 147.197 318.56 147.246L315.65 150.476C315.612 150.517 315.585 150.567 315.569 150.62C315.554 150.674 315.551 150.73 315.56 150.785C315.57 150.839 315.592 150.89 315.625 150.934C315.658 150.977 315.701 151.012 315.75 151.036C320.55 153.402 324.703 156.386 328.21 159.986C330.34 162.176 330.2 164.516 329.22 167.146C329.107 167.452 328.897 167.672 328.59 167.806C320.7 171.216 316.57 153.296 304.64 160.246C303.227 161.066 301.623 162.766 299.83 165.346C297.41 168.832 294.753 172.162 291.86 175.336C291.62 175.596 291.637 175.839 291.91 176.066C300.65 183.466 307.54 190.556 311.51 201.606C311.63 201.952 311.51 202.139 311.15 202.166C292.23 203.536 280.48 204.456 265.78 203.536C265.433 203.516 265.203 203.669 265.09 203.996C254.23 235.476 257.3 269.536 257.27 303.146C257.223 355.846 257.3 408.602 257.5 461.416" stroke="#838388" stroke-width="2"/>
<path d="M248.94 463.436L248.2 255.716C248.193 255.409 248.047 255.299 247.76 255.386C241.42 257.332 234.927 258.216 228.28 258.036C228.116 258.033 227.954 258.072 227.81 258.151C227.666 258.23 227.545 258.346 227.46 258.486L222.34 266.876C222.314 266.918 222.297 266.965 222.29 267.014C222.283 267.063 222.286 267.114 222.299 267.162C222.312 267.211 222.335 267.256 222.366 267.297C222.397 267.337 222.436 267.37 222.48 267.396C233.46 273.476 236.24 282.396 236.56 295.056C236.727 301.682 236.323 308.289 235.35 314.876C235.338 314.953 235.308 315.026 235.263 315.09C235.219 315.154 235.16 315.207 235.093 315.245C235.025 315.283 234.95 315.304 234.873 315.308C234.796 315.311 234.72 315.297 234.65 315.266C228.25 312.406 222.183 308.959 216.45 304.926C216.408 304.898 216.358 304.883 216.308 304.884C216.258 304.885 216.209 304.901 216.168 304.93C216.126 304.96 216.095 305.001 216.078 305.048C216.06 305.095 216.058 305.147 216.07 305.196C225.1 337.596 230.69 370.886 235.25 404.166C237.27 418.886 237.64 433.366 237.22 447.646C237.12 450.939 237.4 454.019 238.06 456.886" stroke="#838388" stroke-width="2"/>
<path d="M140.8 354.626C140.76 354.932 140.843 355.089 141.05 355.096C160.55 355.726 190.64 357.236 205.34 372.116C217 383.916 220.3 403.176 217.56 419.116C217.534 419.271 217.558 419.431 217.628 419.571C217.698 419.712 217.811 419.825 217.95 419.896L228.44 425.196C228.84 425.396 229.017 425.276 228.97 424.836C225.97 396.249 221.43 367.909 215.35 339.816C214.37 335.286 213.33 334.176 209.88 331.496C197.5 321.926 183.3 314.286 169.91 306.036C169.61 305.849 169.327 305.872 169.06 306.106C154.41 318.956 141.31 331.116 122.52 335.296" stroke="#838388" stroke-width="2"/>
<path d="M104.19 149.846L118.61 154.056C118.937 154.149 119.25 154.116 119.55 153.956C127.07 149.942 134.863 146.556 142.93 143.796C148.04 142.046 150.7 140.586 152.99 136.016C158.75 124.509 164.51 112.979 170.27 101.426C170.423 101.126 170.637 101.072 170.91 101.266L177.75 106.196C178.097 106.449 178.293 106.362 178.34 105.936C178.953 100.089 180.373 90.8089 182.6 78.0956C182.913 76.3089 182.497 75.1023 181.35 74.4756" stroke="#838388" stroke-width="2"/>
<path d="M220.84 64.3756C230.8 61.4456 242.86 61.4456 254.48 62.8756C254.78 62.9156 254.933 62.7823 254.94 62.4756L255.09 57.6856C255.103 57.2923 254.92 57.0423 254.54 56.9356C251.73 56.1556 248.57 55.8256 245.95 55.0056C234.17 51.3156 222.04 46.1756 209.34 46.6556C208.993 46.6689 208.707 46.8089 208.48 47.0756C202.5 54.3056 209.53 63.8156 213.09 69.7656C213.323 70.1522 213.58 70.1689 213.86 69.8156C216.233 66.8623 218.56 65.0489 220.84 64.3756Z" stroke="#82696C" stroke-width="2"/>
<path d="M264.29 58.4755L263.06 66.0254C263.007 66.3388 263.133 66.5321 263.44 66.6054L268.23 67.7454C268.391 67.7838 268.56 67.774 268.716 67.7172C268.872 67.6603 269.009 67.5589 269.11 67.4254L275.08 59.5454C275.167 59.4312 275.226 59.2991 275.255 59.1588C275.284 59.0185 275.281 58.8734 275.247 58.7344C275.212 58.5954 275.147 58.4658 275.056 58.3553C274.965 58.2447 274.85 58.1559 274.72 58.0955C270.307 56.0488 265.68 54.7455 260.84 54.1855C260.773 54.1755 260.705 54.1881 260.647 54.2214C260.589 54.2547 260.543 54.3066 260.518 54.3689C260.492 54.4312 260.489 54.5003 260.507 54.5649C260.526 54.6296 260.565 54.6861 260.62 54.7255L263.77 57.1654C263.966 57.3169 264.118 57.5185 264.21 57.7491C264.301 57.9796 264.329 58.2305 264.29 58.4755Z" stroke="#82696C" stroke-width="2"/>
<path d="M186.84 63.3155C191.35 76.7855 202.18 85.1155 213.26 94.9355C213.318 94.9889 213.391 95.0213 213.469 95.0278C213.547 95.0344 213.625 95.0147 213.692 94.9718C213.759 94.9288 213.81 94.865 213.839 94.7899C213.867 94.7148 213.871 94.6325 213.85 94.5555C210.743 83.3888 205.973 72.9755 199.54 63.3155C199.426 63.1449 199.28 62.9994 199.109 62.8877C198.939 62.7759 198.749 62.7003 198.55 62.6654C194.777 61.9721 190.997 61.9821 187.21 62.6954C186.85 62.7621 186.727 62.9688 186.84 63.3155Z" stroke="#82696C" stroke-width="2"/>
<path d="M274.84 73.1256C277.393 75.4123 279.233 78.189 280.36 81.4556C280.507 81.8756 280.737 81.929 281.05 81.6156C284.37 78.3556 288.38 74.7756 292.89 73.3156C293.197 73.2156 293.467 73.279 293.7 73.5056C296.43 76.1156 294.4 79.3956 292.42 81.8956C287.71 87.8256 279.75 91.5456 279.41 99.8556C279.397 100.189 279.537 100.276 279.83 100.116C289.49 94.9456 303.88 87.0456 310.26 78.3256C313.93 73.3156 313.75 64.2457 305.81 63.2257C293.963 61.7057 283.64 64.839 274.84 72.6256C274.805 72.6575 274.778 72.6961 274.759 72.7392C274.74 72.7822 274.73 72.8287 274.73 72.8756C274.73 72.9226 274.74 72.9691 274.759 73.0121C274.778 73.0551 274.805 73.0938 274.84 73.1256Z" stroke="#82696C" stroke-width="2"/>
<path d="M226.6 71.4155C233.96 78.9355 240.483 86.4488 246.17 93.9555C249.64 98.5455 260.07 98.8155 258.3 91.4755C258.213 91.0955 257.98 90.9555 257.6 91.0555C252.07 92.5555 246.22 92.5055 243.26 86.9055C243.12 86.6255 243.097 86.3388 243.19 86.0455C244.68 81.4955 253.41 82.4455 258.46 82.9355C275.48 84.5755 259.23 123.675 237.99 96.6455C232.29 89.3855 226.98 81.6755 219.02 76.6755C218.977 76.6459 218.926 76.6295 218.874 76.6283C218.821 76.6271 218.77 76.6411 218.725 76.6687C218.681 76.6962 218.645 76.7361 218.623 76.7834C218.601 76.8308 218.593 76.8837 218.6 76.9355C220.213 91.1822 223.197 105.129 227.55 118.775C227.65 119.082 227.847 119.179 228.14 119.065C238.48 115.152 248.937 111.579 259.51 108.345C263.86 107.015 268.12 105.195 270.34 100.955C273.05 95.7755 274.79 87.9055 271.47 82.6455C262.41 68.2955 240.96 70.8355 226.65 71.2755C226.634 71.2761 226.619 71.2814 226.606 71.2909C226.593 71.3003 226.583 71.3134 226.578 71.3285C226.572 71.3436 226.571 71.36 226.575 71.3755C226.579 71.391 226.588 71.4049 226.6 71.4155Z" stroke="#78544C" stroke-width="2"/>
<path d="M208.87 101.265C202.47 96.1988 196.227 90.9154 190.14 85.4154C189.887 85.1888 189.737 85.2421 189.69 85.5755C188.737 92.5755 187.867 99.5755 187.08 106.575C186.48 111.845 186.26 115.965 189.87 120.115C195.03 126.049 200.343 131.769 205.81 137.275C205.863 137.329 205.928 137.369 206 137.392C206.072 137.414 206.148 137.419 206.222 137.405C206.296 137.391 206.366 137.359 206.425 137.312C206.484 137.265 206.53 137.205 206.56 137.135C208.58 132.535 211.343 128.369 214.85 124.635C216.6 122.755 218.02 121.115 217.61 118.315C216.65 111.635 214.27 105.545 208.87 101.265Z" stroke="#82696C" stroke-width="2"/>
<path d="M243.99 149.396C262.7 165.146 296.33 163.016 310.72 142.506C321.04 127.806 326.41 111.366 332.19 93.7755C332.29 93.4622 332.18 93.2555 331.86 93.1555C323.78 90.6355 314.77 87.6555 307.47 93.1255C285.31 109.716 259.41 118.206 231.39 126.656C231.083 126.749 230.97 126.956 231.05 127.276C233.363 136.716 237.677 144.089 243.99 149.396Z" stroke="#82696C" stroke-width="2"/>
<path d="M393.92 103.825C386.54 100.659 379.427 100.385 372.58 103.005C347.9 112.415 362.36 144.225 368.75 160.045C368.877 160.365 369.06 160.402 369.3 160.155C371.35 158.035 372.24 155.925 372.44 152.795C373.05 143.655 373.31 134.805 377.67 126.225C381.34 118.995 388.35 111.415 394.12 104.695C394.176 104.628 394.216 104.549 394.237 104.464C394.257 104.379 394.258 104.291 394.238 104.206C394.219 104.121 394.18 104.043 394.125 103.977C394.069 103.911 393.999 103.859 393.92 103.825Z" stroke="#82696C" stroke-width="2"/>
<path d="M443.21 149.346C443.207 149.404 443.225 149.462 443.26 149.509C443.296 149.556 443.347 149.589 443.404 149.602C443.461 149.615 443.521 149.608 443.574 149.581C443.626 149.554 443.667 149.51 443.69 149.456C446.25 142.046 445.1 132.246 443.65 124.476C443.45 123.416 443.88 122.802 444.94 122.636L455.14 121.056C455.507 120.996 455.59 120.809 455.39 120.496C442.71 100.176 419.26 98.4655 399.95 110.126C399.869 110.176 399.806 110.253 399.772 110.343C399.738 110.433 399.734 110.531 399.762 110.622C399.79 110.713 399.847 110.792 399.925 110.845C400.002 110.898 400.096 110.923 400.19 110.916C414.1 110.236 429.32 113.826 438.15 125.366C443.71 132.626 444.36 140.366 443.21 149.346Z" stroke="#78544C" stroke-width="2"/>
<path d="M269.69 175.085C276.59 174.539 282.667 171.939 287.92 167.285C288.28 166.965 288.22 166.849 287.74 166.935C280.833 168.215 273.977 168.515 267.17 167.835" stroke="#78544C" stroke-width="2"/>
<path d="M267.17 167.836C243.38 164.776 228.26 151.386 223.1 127.646C223.087 127.576 223.054 127.511 223.004 127.46C222.955 127.409 222.891 127.374 222.822 127.359C222.752 127.344 222.68 127.35 222.614 127.376C222.547 127.402 222.49 127.447 222.45 127.506C217.87 133.726 214.177 140.422 211.37 147.596C211.121 148.23 210.636 148.742 210.017 149.026C209.398 149.309 208.692 149.341 208.05 149.116C206.043 148.416 204.033 147.079 202.02 145.106C192.507 135.772 183.38 126.139 174.64 116.206C174.569 116.124 174.474 116.068 174.369 116.043C174.264 116.018 174.153 116.026 174.053 116.067C173.953 116.108 173.868 116.179 173.811 116.27C173.753 116.361 173.724 116.468 173.73 116.576C174.78 140.436 191.65 161.326 212.62 170.526C229.93 178.126 251.26 177.536 269.69 175.086" stroke="#82696C" stroke-width="2"/>
<path d="M267.17 167.835C267.99 169.242 266.687 169.832 263.26 169.605C263.184 169.599 263.108 169.613 263.039 169.646C262.97 169.679 262.912 169.73 262.869 169.793C262.826 169.856 262.801 169.929 262.796 170.005C262.791 170.081 262.806 170.157 262.84 170.225C262.913 170.392 263.07 170.485 263.31 170.505C266.837 170.792 270.393 170.902 273.98 170.835C274.057 170.834 274.133 170.855 274.198 170.896C274.263 170.938 274.315 170.998 274.346 171.068C274.377 171.139 274.386 171.217 274.373 171.293C274.359 171.369 274.323 171.44 274.27 171.495C273.917 171.869 273.363 172.105 272.61 172.205C271.377 172.365 269.107 172.565 265.8 172.805C265.56 172.825 265.42 172.959 265.38 173.205C265.371 173.263 265.374 173.321 265.391 173.377C265.408 173.433 265.437 173.484 265.477 173.526C265.517 173.569 265.565 173.601 265.62 173.622C265.674 173.643 265.732 173.651 265.79 173.645C267.643 173.479 268.943 173.959 269.69 175.085" stroke="#E7A593" stroke-width="2"/>
<path d="M402.54 120.366C388.93 118.696 382.19 132.036 380.48 143.606C380.433 143.946 380.537 144.006 380.79 143.786C392.56 133.706 404.23 131.936 418.26 129.356C420.72 128.902 422.927 128.029 424.88 126.736C424.973 126.674 425.079 126.637 425.19 126.627C425.3 126.616 425.412 126.634 425.514 126.678C425.616 126.721 425.706 126.79 425.775 126.877C425.844 126.963 425.89 127.066 425.91 127.176C426.603 131.062 427.58 134.769 428.84 138.296C432.22 147.796 419.9 148.766 418.86 140.376C418.853 140.316 418.857 140.258 418.87 140.206L419.52 138.346C419.633 138.019 419.517 137.866 419.17 137.886C406.26 138.866 391.5 142.806 383.47 153.446C383.414 153.516 383.382 153.603 383.379 153.694C383.377 153.784 383.403 153.873 383.455 153.947C383.506 154.021 383.58 154.076 383.666 154.105C383.752 154.133 383.844 154.134 383.93 154.106C398.163 149.872 412.7 148.616 427.54 150.336C431.01 150.736 435.34 148.146 435.44 144.116C435.76 130.356 424.51 119.546 410.83 120.286" stroke="#78544C" stroke-width="2"/>
<path d="M124.14 162.216C131.89 162.836 140.8 163.196 147.15 165.916C159.43 171.176 165.14 184.606 164.83 197.846C164.18 224.976 156.96 251.016 145.66 275.956C145.493 276.329 145.593 276.425 145.96 276.245C162.89 267.865 182.41 256.516 191.35 238.976C193.337 235.089 195.247 229.512 197.08 222.245C200.79 207.555 203.09 192.526 205.73 177.596C205.79 177.256 205.67 177.002 205.37 176.836C185.48 165.556 172.27 151.066 166.58 128.546C166.563 128.469 166.52 128.401 166.459 128.351C166.398 128.302 166.322 128.275 166.244 128.273C166.165 128.272 166.089 128.298 166.027 128.345C165.964 128.393 165.92 128.46 165.9 128.536C162.84 138.946 159.57 148.456 148.14 152.026C139.71 154.676 131.61 157.256 124.09 162.026C124.072 162.036 124.058 162.052 124.051 162.071C124.043 162.09 124.042 162.111 124.047 162.132C124.053 162.152 124.064 162.171 124.081 162.186C124.098 162.201 124.118 162.212 124.14 162.216Z" stroke="#82696C" stroke-width="2"/>
<path d="M460.79 134.886C460.46 131.586 455.68 130.376 453.07 130.646C452.783 130.672 452.64 130.832 452.64 131.126C452.72 137.552 452.287 143.952 451.34 150.326C451.287 150.686 451.427 150.789 451.76 150.636C458.507 147.529 461.517 142.279 460.79 134.886Z" stroke="#78544C" stroke-width="2"/>
<path d="M325.07 135.136C324.18 143.616 334.81 147.316 341.16 149.146C341.46 149.232 341.637 149.126 341.69 148.826L343.78 138.076C343.808 137.947 343.787 137.813 343.72 137.7C343.653 137.587 343.546 137.503 343.42 137.466C337.753 135.739 331.963 134.686 326.05 134.306C325.811 134.291 325.576 134.37 325.394 134.524C325.211 134.679 325.095 134.898 325.07 135.136Z" stroke="#355758" stroke-width="2"/>
<path d="M368.65 200.745C379.6 210.945 396.17 218.385 411.62 214.935C417.38 213.645 424.24 210.945 429.98 210.355C434.807 209.855 439.59 210.099 444.33 211.085C444.405 211.101 444.482 211.094 444.553 211.065C444.624 211.036 444.684 210.987 444.726 210.923C444.768 210.86 444.79 210.785 444.789 210.708C444.788 210.632 444.764 210.558 444.72 210.495C440.84 204.975 435.5 200.315 428.3 201.605C421.52 202.825 413.89 204.635 407.52 204.455C372.07 203.495 361.3 168.265 352.76 140.695C352.725 140.573 352.65 140.465 352.547 140.39C352.445 140.314 352.32 140.274 352.192 140.276C352.065 140.278 351.941 140.323 351.842 140.402C351.742 140.482 351.671 140.592 351.64 140.715C345.79 162.635 352.06 185.295 368.65 200.745Z" stroke="#82696C" stroke-width="2"/>
<path d="M427.57 158.525C409.05 156.685 389.83 158.525 373.37 168.235C373.05 168.422 372.95 168.692 373.07 169.045C377.457 182.165 386.29 190.835 399.57 195.055C414.84 199.905 430.14 190.085 437.04 177.095C438.65 174.065 441.37 172.035 445 171.245C452.96 169.515 461.85 168.045 467.88 161.635C468.007 161.5 468.089 161.33 468.115 161.146C468.142 160.962 468.112 160.773 468.03 160.605L464.48 153.415C464.313 153.069 464.063 152.995 463.73 153.195C458.13 156.549 452.027 158.365 445.42 158.645" stroke="#82696C" stroke-width="2"/>
<path d="M66.95 184.366C63.54 190.916 56.27 191.486 50.44 194.616C40.92 199.726 32.8499 209.386 32.2699 220.556C31.7699 230.306 42.2399 235.066 49.6699 238.146C56.3366 240.899 63.0133 243.626 69.7 246.326C75.95 248.856 80.04 256.486 83.68 261.486C94.67 276.606 112.74 282.236 130.55 280.576C132.67 280.376 134.87 278.896 135.9 276.806C141.687 265.072 146.067 252.789 149.04 239.956C149.12 239.622 149.013 239.369 148.72 239.196C141.833 234.969 134.363 232.316 126.31 231.236C111.77 229.276 99.8299 229.616 82.4899 228.946C65.9599 228.306 55.82 217.836 63.7 201.246C65.0933 198.312 66.4799 195.679 67.8599 193.346" stroke="#82696C" stroke-width="2"/>
<path d="M67.86 193.346C74.53 184.536 82.86 179.916 92.33 175.116C92.63 174.962 92.8733 174.746 93.06 174.466C98.42 166.246 110.26 165.536 117.61 163.576C118.13 163.436 118.147 163.249 117.66 163.016C103.11 156.076 81.1 158.116 70.82 171.616C68.2133 175.042 66.9233 179.292 66.95 184.366" stroke="#78544C" stroke-width="2"/>
<path d="M67.8599 193.346L66.95 184.366" stroke="#E7A593" stroke-width="2"/>
<path d="M118.8 173.956C120.34 178.476 123.08 186.456 127.11 188.776C138.03 195.056 148.51 202.766 155.43 213.466C155.466 213.525 155.52 213.571 155.583 213.598C155.647 213.624 155.718 213.631 155.785 213.615C155.853 213.6 155.914 213.563 155.959 213.511C156.005 213.459 156.033 213.394 156.04 213.326C157.067 204.812 156.757 196.389 155.11 188.055C153.35 179.102 148.373 174.292 140.18 173.625" stroke="#78544C" stroke-width="2"/>
<path d="M140.18 173.626C132.733 171.752 125.573 171.626 118.7 173.246C118.622 173.264 118.549 173.301 118.487 173.352C118.426 173.404 118.378 173.47 118.347 173.544C118.315 173.618 118.302 173.699 118.308 173.779C118.314 173.859 118.338 173.937 118.38 174.006C118.733 174.586 118.873 174.569 118.8 173.956" stroke="#838388" stroke-width="2"/>
<path d="M140.18 173.625L118.8 173.956" stroke="#E7BFAF" stroke-width="2"/>
<path d="M103.91 179.156C106.84 183.656 112.92 187.786 117.28 189.496C117.363 189.526 117.453 189.53 117.539 189.508C117.625 189.485 117.701 189.436 117.758 189.368C117.815 189.301 117.849 189.217 117.857 189.129C117.864 189.04 117.844 188.952 117.8 188.876L109.91 175.646C109.703 175.286 109.397 175.149 108.99 175.236L105.22 176.016C104.892 176.084 104.585 176.231 104.326 176.444C104.068 176.657 103.865 176.93 103.736 177.24C103.607 177.549 103.555 177.885 103.586 178.219C103.616 178.553 103.727 178.875 103.91 179.156Z" stroke="#355758" stroke-width="2"/>
<path d="M456.08 176.895C446.66 179.375 442.03 185.135 436.35 192.375C436.314 192.42 436.292 192.475 436.287 192.532C436.282 192.59 436.294 192.647 436.322 192.698C436.35 192.748 436.392 192.789 436.443 192.816C436.495 192.842 436.553 192.852 436.61 192.845C445.1 191.775 452.32 184.345 456.46 177.405C456.497 177.347 456.516 177.279 456.513 177.21C456.511 177.141 456.487 177.075 456.446 177.019C456.405 176.964 456.348 176.922 456.282 176.9C456.217 176.878 456.146 176.876 456.08 176.895Z" stroke="#82696C" stroke-width="2"/>
<path d="M233.34 184.726C226.953 184.239 220.717 183.002 214.63 181.016C214.25 180.896 214.023 181.032 213.95 181.426C212.23 190.319 211.123 199.289 210.63 208.336C210.57 209.429 210.66 210.286 210.9 210.906C210.974 211.093 211.096 211.257 211.254 211.381C211.412 211.506 211.6 211.586 211.799 211.615C211.998 211.643 212.201 211.618 212.387 211.543C212.573 211.468 212.737 211.344 212.86 211.186C218.773 203.586 225.067 196.502 231.74 189.936C232.82 188.866 233.45 187.246 234.04 185.886C234.093 185.764 234.116 185.632 234.108 185.499C234.099 185.367 234.058 185.238 233.99 185.125C233.921 185.011 233.827 184.916 233.713 184.846C233.6 184.777 233.472 184.735 233.34 184.726Z" stroke="#355758" stroke-width="2"/>
<path d="M297.89 193.116C291.25 185.706 284.82 177.966 273.78 183.716C269.72 185.826 268.44 190.266 268.1 194.486C268.073 194.806 268.22 194.972 268.54 194.986C278.273 195.406 287.967 195.022 297.62 193.836C298.173 193.769 298.263 193.529 297.89 193.116Z" stroke="#355758" stroke-width="2"/>
<path d="M69.79 213.625C69.58 218.525 81.91 220.765 85.07 220.795C89.2367 220.849 93.4533 220.879 97.72 220.885C98.2 220.885 98.2633 220.722 97.91 220.395C87.52 210.685 87.99 196.825 97.48 186.785C98.4267 185.779 98.6367 184.845 98.11 183.985C97.91 183.665 97.6234 183.505 97.25 183.505C95.5967 183.499 93.77 183.932 91.77 184.805C80.08 189.915 70.37 200.475 69.79 213.625Z" stroke="#78544C" stroke-width="2"/>
<path d="M243.52 184.996C243.498 184.995 243.476 185.004 243.46 185.018C243.443 185.033 243.432 185.053 243.43 185.076C241.02 197.666 240.17 215.116 250.53 224.826C250.83 225.099 251.013 225.036 251.08 224.636C253.32 211.302 256.967 198.359 262.02 185.806C262.413 184.826 262.083 184.386 261.03 184.486C255.33 184.992 249.493 185.162 243.52 184.996Z" stroke="#355758" stroke-width="2"/>
<path d="M106.63 217.966C109.177 220.026 111.233 221.076 112.8 221.116C125.813 221.442 138.757 224.735 151.63 230.995C151.675 231.018 151.725 231.029 151.776 231.026C151.826 231.023 151.875 231.008 151.917 230.98C151.959 230.953 151.994 230.915 152.017 230.871C152.041 230.826 152.052 230.776 152.05 230.726C151.44 219.736 144.61 210.556 135.6 204.676C135.32 204.496 135.103 204.552 134.95 204.846C131.417 211.679 125.867 215.426 118.3 216.086C115 216.376 111.51 216.706 109.24 214.926C102.11 209.316 109.68 197.895 113.06 207.625C113.113 207.775 113.208 207.907 113.334 208.006C113.459 208.105 113.61 208.167 113.77 208.185C119.11 208.835 126.45 204.126 130.22 200.596C130.27 200.546 130.306 200.484 130.324 200.416C130.342 200.348 130.342 200.276 130.322 200.209C130.303 200.141 130.265 200.08 130.214 200.032C130.162 199.984 130.099 199.95 130.03 199.935C125.877 199.075 121.633 198.535 117.3 198.315C112.86 198.085 107.43 193.945 103.85 191.455C103.774 191.401 103.689 191.363 103.598 191.343C103.507 191.322 103.412 191.321 103.32 191.337C103.228 191.354 103.14 191.389 103.061 191.44C102.982 191.491 102.914 191.558 102.86 191.635C95.98 201.582 97.2367 210.359 106.63 217.966Z" stroke="#78544C" stroke-width="2"/>
<path d="M349.08 191.636C335.96 196.096 333.94 205.666 334.6 218.096C334.633 218.682 334.893 218.812 335.38 218.486C342.99 213.386 348.75 206.286 354.51 199.196C354.783 198.862 354.793 198.519 354.54 198.166L350.01 191.926C349.777 191.599 349.467 191.502 349.08 191.636Z" stroke="#355758" stroke-width="2"/>
<path d="M233.04 201.136L217.68 218.186C217.32 218.592 217.307 219.009 217.64 219.436L224.07 227.616C224.33 227.942 224.66 228.056 225.06 227.956C229.987 226.689 234.983 226.262 240.05 226.676C240.47 226.709 240.56 226.549 240.32 226.196C235.327 218.796 233.21 210.576 233.97 201.536C234.057 200.482 233.747 200.349 233.04 201.136Z" stroke="#838388" stroke-width="2"/>
<path d="M370.53 214.096C367.617 211.082 364.423 208.392 360.95 206.026C360.732 205.879 360.47 205.812 360.21 205.836C359.949 205.86 359.705 205.973 359.52 206.156C351.693 213.882 346.45 223.106 343.79 233.826C343.777 233.876 343.779 233.928 343.795 233.977C343.811 234.026 343.841 234.07 343.881 234.102C343.921 234.135 343.969 234.155 344.02 234.161C344.072 234.167 344.124 234.158 344.17 234.136C353.97 229.536 361.9 221.436 370.45 215.146C370.877 214.826 370.903 214.476 370.53 214.096Z" stroke="#355758" stroke-width="2"/>
<path d="M224.14 237.316C215.57 236.176 211.3 226.246 207.77 219.516C207.724 219.43 207.652 219.36 207.565 219.316C207.478 219.272 207.38 219.255 207.284 219.268C207.187 219.281 207.097 219.323 207.024 219.389C206.952 219.454 206.902 219.541 206.88 219.636C203.47 234.816 199.2 248.716 187.21 259.486C179.163 266.712 172.6 271.742 167.52 274.576C152.987 282.689 138.92 291.532 125.32 301.106C120.79 304.296 111.77 306.586 108.3 311.876C105.907 315.529 103.73 320.182 101.77 325.836C101.663 326.142 101.77 326.299 102.09 326.306C108.74 326.406 116.6 326.916 122.83 325.656C136.69 322.846 150.25 310.376 161.78 300.076C174.3 288.886 186.83 281.826 202.25 272.286C215.29 264.216 221.5 252.436 225.93 238.336C226.023 238.042 225.927 237.836 225.64 237.716C225.14 237.516 224.64 237.382 224.14 237.316Z" stroke="#82696C" stroke-width="2"/>
<path d="M248.5 235.496L235.37 234.736C235.099 234.722 234.833 234.815 234.63 234.994C234.426 235.173 234.3 235.425 234.28 235.696C233.98 239.862 233.193 243.929 231.92 247.896C231.807 248.236 231.93 248.396 232.29 248.376C236.823 248.176 241.313 247.612 245.76 246.686C250.39 245.716 249.13 239.456 249.02 236.026C249.017 235.889 248.962 235.759 248.866 235.66C248.77 235.562 248.639 235.503 248.5 235.496Z" stroke="#355758" stroke-width="2"/>
<path d="M45.26 245.906C50.69 270.826 69.9299 291.146 94.8399 296.626C106.39 299.166 116.62 297.376 125.84 290.356C125.895 290.313 125.937 290.255 125.958 290.188C125.979 290.122 125.979 290.051 125.958 289.984C125.938 289.917 125.897 289.859 125.842 289.816C125.787 289.774 125.72 289.749 125.65 289.746C101.08 288.586 85.57 280.346 72.25 259.666C69.91 256.026 66.55 253.836 62.8 252.566C56.9133 250.572 51.1666 248.269 45.56 245.656C45.5228 245.64 45.4821 245.635 45.4422 245.641C45.4024 245.647 45.365 245.664 45.334 245.689C45.3031 245.715 45.2798 245.749 45.2668 245.787C45.2537 245.825 45.2514 245.866 45.26 245.906Z" stroke="#78544C" stroke-width="2"/>
<path d="M407.94 318.385C408.56 321.119 407.507 322.949 404.78 323.875C386.71 330.025 367.27 339.135 353.1 351.465C352.813 351.719 352.86 351.875 353.24 351.935C365.64 353.905 378.2 354.125 390.8 355.525C391.187 355.565 391.37 355.779 391.35 356.165C391.263 357.852 390.717 359.339 389.71 360.625C389.584 360.78 389.428 360.909 389.251 361.003C389.074 361.098 388.88 361.156 388.68 361.175C374.52 362.362 360.68 360.832 347.16 356.585C346.994 356.535 346.818 356.529 346.65 356.57C346.483 356.61 346.331 356.695 346.21 356.815L341.67 361.335C341.596 361.409 341.54 361.499 341.508 361.599C341.476 361.698 341.469 361.804 341.486 361.907C341.504 362.01 341.546 362.108 341.61 362.191C341.673 362.274 341.755 362.341 341.85 362.385L363.09 372.185C363.55 372.399 363.643 372.719 363.37 373.145L361.29 376.375C361.216 376.493 361.108 376.586 360.979 376.641C360.851 376.696 360.708 376.712 360.57 376.685C351.85 375.035 343.85 370.315 336.25 366.105C335.948 365.939 335.602 365.869 335.259 365.904C334.915 365.94 334.591 366.08 334.33 366.305L328.36 371.485C328.195 371.63 328.063 371.808 327.973 372.007C327.883 372.207 327.837 372.424 327.838 372.643C327.839 372.862 327.887 373.078 327.979 373.277C328.071 373.476 328.204 373.653 328.37 373.795C339.163 383.055 351.137 385.862 364.29 382.215C365.583 381.855 366.527 381.419 367.12 380.905C372.413 376.352 377.967 372.149 383.78 368.295C388.53 365.155 393.61 361.325 396.27 357.545C407.61 341.435 414.5 323.745 421.07 305.325C421.103 305.236 421.118 305.14 421.114 305.044C421.11 304.949 421.086 304.855 421.045 304.768C421.004 304.681 420.947 304.604 420.875 304.54C420.804 304.476 420.72 304.427 420.63 304.395L416.8 303.055C416.642 302.999 416.51 302.889 416.426 302.744C416.342 302.6 416.311 302.43 416.34 302.265C418.05 291.635 422.23 281.025 425.41 270.775C425.523 270.415 425.397 270.269 425.03 270.335C410.943 272.702 397.437 276.885 384.51 282.885C384.306 282.981 384.075 283 383.859 282.939C383.642 282.879 383.455 282.742 383.33 282.555L381.31 279.585C381.117 279.292 380.857 279.202 380.53 279.315C366.883 283.989 353.607 289.535 340.7 295.955C340.307 296.155 340.26 296.415 340.56 296.735C340.793 296.995 341.057 297.209 341.35 297.375C341.603 297.515 341.813 297.699 341.98 297.925C342.86 299.152 343.047 300.279 342.54 301.305C333.127 320.379 327.763 340.562 326.45 361.855C326.437 362.102 326.533 362.159 326.74 362.025C331.77 358.825 335.1 356.665 336.39 352.735C341.663 336.762 346.133 321.479 349.8 306.885C350.19 305.315 351.32 303.485 352 301.925C352.211 301.446 352.583 301.056 353.051 300.824C353.519 300.592 354.053 300.532 354.56 300.655C357.03 301.255 358.11 303.015 357.36 305.565C353.387 319.005 349.587 332.492 345.96 346.025C345.88 346.339 345.977 346.409 346.25 346.235C350.12 343.785 358.26 339.025 359.99 334.775C365.21 321.975 373.92 310.195 383.65 299.185C386.23 296.265 389.293 293.965 392.84 292.285C392.971 292.223 393.118 292.199 393.261 292.217C393.405 292.235 393.54 292.293 393.65 292.385L396.43 294.735C396.75 295.009 396.837 295.345 396.69 295.745C396.17 297.119 395.35 298.295 394.23 299.275C384.117 308.095 375.877 318.462 369.51 330.375C369.25 330.869 369.367 330.985 369.86 330.725C377.49 326.725 401.1 315.315 407.36 317.715C407.673 317.835 407.867 318.059 407.94 318.385Z" stroke="#566B66" stroke-width="2"/>
<path d="M201.39 284.576C209.483 291.076 218.147 296.699 227.38 301.446C227.72 301.626 227.907 301.522 227.94 301.136C228.84 290.106 226.92 280.126 217.72 273.126C217.42 272.899 217.113 272.892 216.8 273.106L201.44 283.456C201.35 283.517 201.276 283.598 201.222 283.693C201.169 283.788 201.139 283.894 201.134 284.003C201.13 284.112 201.15 284.22 201.195 284.32C201.239 284.419 201.306 284.507 201.39 284.576Z" stroke="#355758" stroke-width="2"/>
<path d="M176.58 299.826C188.373 306.332 199.807 313.426 210.88 321.106C210.97 321.167 211.075 321.202 211.184 321.206C211.293 321.209 211.401 321.182 211.495 321.126C211.589 321.07 211.664 320.989 211.713 320.891C211.762 320.794 211.782 320.684 211.77 320.576C210.19 307.349 204.087 296.816 193.46 288.976C193.207 288.789 192.937 288.769 192.65 288.916C187.16 291.816 180.74 294.866 176.53 299.516C176.51 299.538 176.494 299.564 176.486 299.593C176.477 299.622 176.475 299.653 176.48 299.683C176.485 299.713 176.496 299.741 176.513 299.766C176.531 299.79 176.554 299.811 176.58 299.826Z" stroke="#355758" stroke-width="2"/>
<path d="M306.18 353.065L299.62 388.205C299.615 388.23 299.618 388.256 299.629 388.279C299.64 388.302 299.658 388.321 299.68 388.333C299.702 388.345 299.728 388.35 299.753 388.347C299.778 388.344 299.801 388.333 299.82 388.315L317.65 371.735C317.901 371.504 318.054 371.186 318.08 370.845L318.82 359.265" stroke="#838388" stroke-width="2"/>
<path d="M318.82 359.266C323.1 340.006 325.73 321.276 333.5 302.916C333.52 302.866 333.525 302.812 333.513 302.76C333.502 302.708 333.475 302.661 333.435 302.625C333.396 302.589 333.347 302.566 333.294 302.559C333.241 302.552 333.187 302.561 333.14 302.586C328.59 305.016 326.42 307.886 322.7 312.576C315.853 321.202 311.187 330.946 308.7 341.806C307.76 345.912 306.92 349.666 306.18 353.066" stroke="#566B66" stroke-width="2"/>
<path d="M318.82 359.265L316.47 361.315C316.21 361.542 315.927 361.575 315.62 361.415C312.02 359.575 308.873 356.792 306.18 353.065" stroke="#C5D6C9" stroke-width="2"/>
<path d="M150.88 380.916C151.235 380.503 151.721 380.225 152.257 380.125C152.793 380.025 153.347 380.11 153.83 380.366C164.01 385.786 172.65 393.336 179.75 403.016C183.41 408.016 187.86 408.066 193.4 409.466C193.733 409.546 193.847 409.426 193.74 409.106C190.073 397.592 185.003 386.752 178.53 376.586C177.97 375.706 177.68 374.179 177.66 372.006C177.653 371.699 177.803 371.562 178.11 371.596C181.83 372.016 184.557 373.606 186.29 376.366C192.223 385.832 196.94 396.716 200.44 409.016C201.76 413.636 206.13 413.926 210.03 414.906C210.37 414.992 210.547 414.862 210.56 414.516C211.99 372.346 184.29 366.746 150.28 363.896C149.793 363.849 149.55 364.072 149.55 364.566V370.116C149.55 370.29 149.503 370.462 149.413 370.612C149.323 370.761 149.194 370.884 149.04 370.966C141.95 374.786 134.19 372.376 126.62 371.796C126.24 371.769 126.05 371.946 126.05 372.326V380.126C126.05 380.584 125.932 381.034 125.708 381.433C125.484 381.832 125.161 382.167 124.77 382.406L98.56 398.336C98.4869 398.38 98.4257 398.442 98.3817 398.516C98.3376 398.589 98.3121 398.672 98.3071 398.758C98.3022 398.843 98.3181 398.929 98.3534 399.007C98.3887 399.085 98.4425 399.153 98.51 399.206C109.81 407.766 120.56 412.826 134.94 419.606C135.24 419.746 135.333 419.972 135.22 420.286L133.19 425.926C133.083 426.232 133.18 426.449 133.48 426.576C154.49 434.986 192.78 451.226 208.02 424.526C208.072 424.435 208.106 424.334 208.119 424.23C208.131 424.126 208.123 424.02 208.094 423.919C208.065 423.817 208.016 423.722 207.951 423.639C207.885 423.556 207.803 423.487 207.71 423.436C205.323 422.116 202.773 421.299 200.06 420.986C199.7 420.946 199.387 421.052 199.12 421.306C193.51 426.666 187.21 431.566 179.21 432.476C178.857 432.516 178.61 432.369 178.47 432.036C177.48 429.606 178.25 427.856 180.52 426.446C184.01 424.266 190.39 421.256 192.8 418.096C193.107 417.682 193.01 417.419 192.51 417.306L182.4 414.956C182.249 414.921 182.091 414.924 181.939 414.964C181.788 415.004 181.648 415.08 181.53 415.186C174.73 421.419 166.677 424.826 157.37 425.406C156.99 425.426 156.8 425.246 156.8 424.866V422.356C156.8 422.213 156.838 422.073 156.91 421.95C156.982 421.827 157.085 421.725 157.21 421.656C161.98 418.936 169.68 416.386 173.11 412.276C173.343 411.996 173.29 411.779 172.95 411.626C159.22 405.556 143.78 405.946 129.97 399.876C125.3 397.816 127.12 393.776 131.7 394.636C145.127 397.182 158.1 399.799 170.62 402.486C172.207 402.826 172.397 402.456 171.19 401.376C164.35 395.262 157.667 389.959 151.14 385.466C149.387 384.252 149.3 382.736 150.88 380.916Z" stroke="#566B66" stroke-width="2"/>
<path d="M333.22 84.3658C339.26 87.0458 343.11 89.9158 340.7 97.2558C337.653 106.542 334.337 115.752 330.75 124.886C330.712 124.981 330.697 125.083 330.706 125.185C330.715 125.287 330.747 125.386 330.8 125.473C330.854 125.56 330.927 125.634 331.013 125.688C331.1 125.743 331.198 125.776 331.3 125.786C336.973 126.312 342.47 127.582 347.79 129.596C348.21 129.756 348.433 129.612 348.46 129.166C349.36 116.876 353.1 105.066 362.86 97.2158C374.81 89.8258 389.31 90.1558 400.5 98.4058C400.78 98.6125 401.08 98.6491 401.4 98.5158C414.06 93.3958 430.06 91.5858 442.21 97.3858C459.3 105.536 473.53 125.996 469.2 145.356C469.166 145.518 469.169 145.686 469.208 145.847C469.248 146.008 469.324 146.158 469.43 146.286C474.76 152.586 479.08 158.386 475.01 167.026C473.64 169.946 467.85 172.536 465.92 177.196C461.95 186.806 456.12 193.856 446.83 198.796C446.733 198.849 446.65 198.924 446.587 199.015C446.524 199.106 446.483 199.21 446.466 199.319C446.45 199.428 446.459 199.54 446.492 199.645C446.526 199.75 446.583 199.846 446.66 199.926C452.067 205.492 455.33 212.142 456.45 219.876C456.471 220.016 456.459 220.159 456.416 220.294C456.373 220.429 456.299 220.552 456.2 220.653C456.101 220.755 455.98 220.833 455.847 220.88C455.713 220.927 455.571 220.943 455.43 220.926C442.5 219.386 428.95 218.426 416.55 223.156C404.01 226.446 391.88 224.046 379.83 219.726C379.725 219.689 379.613 219.677 379.503 219.691C379.394 219.704 379.29 219.744 379.2 219.806L363.41 230.786C363.389 230.799 363.372 230.817 363.362 230.84C363.352 230.862 363.349 230.888 363.353 230.913C363.357 230.938 363.369 230.962 363.386 230.982C363.403 231.002 363.425 231.017 363.45 231.026C368.05 232.366 373.11 235.216 374.96 239.696C377.61 246.106 373.79 253.226 366.69 254.176C366.597 254.189 366.503 254.18 366.414 254.15C366.325 254.121 366.244 254.07 366.178 254.004C366.111 253.937 366.06 253.856 366.029 253.766C365.999 253.676 365.988 253.58 366 253.486L367.19 244.636C367.209 244.46 367.174 244.282 367.09 244.126C363.7 238.326 358.81 237.566 352.64 239.906C340.23 244.636 338.7 249.986 333.41 262.636C327.483 276.802 321.95 291.122 316.81 305.596C316.797 305.639 316.8 305.685 316.817 305.727C316.834 305.769 316.865 305.804 316.905 305.826C316.944 305.848 316.99 305.856 317.034 305.848C317.079 305.841 317.119 305.819 317.15 305.786C334.08 284.646 360.96 276.926 385.21 267.686C385.617 267.532 385.84 267.672 385.88 268.106L386.13 270.806C386.138 270.898 386.168 270.988 386.216 271.067C386.264 271.146 386.33 271.214 386.408 271.264C386.486 271.314 386.574 271.346 386.667 271.356C386.759 271.367 386.852 271.357 386.94 271.326C399.987 266.626 413.107 263.266 426.3 261.246L436.59 260.576C436.739 260.566 436.888 260.592 437.024 260.653C437.161 260.714 437.28 260.806 437.373 260.924C437.466 261.041 437.528 261.178 437.555 261.325C437.583 261.472 437.574 261.623 437.53 261.766L426.67 297.076C426.639 297.18 426.632 297.29 426.65 297.397C426.668 297.505 426.71 297.606 426.773 297.694C426.836 297.782 426.918 297.854 427.013 297.905C427.107 297.955 427.213 297.983 427.32 297.986L430.86 298.126C431.019 298.134 431.174 298.176 431.314 298.25C431.455 298.324 431.577 298.427 431.673 298.553C431.768 298.68 431.834 298.825 431.867 298.979C431.899 299.133 431.897 299.293 431.86 299.446C427.79 316.376 421.19 329.736 412.57 347.876C405.25 363.286 394.26 373.736 379.36 382.186C379.236 382.258 379.135 382.363 379.068 382.488C379.001 382.613 378.971 382.755 378.98 382.896L379.32 387.396C379.335 387.566 379.291 387.735 379.197 387.877C379.102 388.019 378.962 388.124 378.8 388.176L374.99 389.406C356.82 395.326 336.34 394.226 322.64 379.386C322.547 379.286 322.418 379.227 322.281 379.221C322.144 379.215 322.011 379.264 321.91 379.356C315.617 385.029 310.933 389.796 307.86 393.656C298.3 405.676 292.76 421.976 289.84 436.816C288.553 442.882 287.35 448.979 286.23 455.106C285.5 459.126 283.84 461.876 279.35 459.506C277.1 458.316 276.76 456.556 277.3 454.066C279.747 442.619 282.15 431.126 284.51 419.586C290.44 393.066 294.81 366.196 299.93 339.506C304.577 315.272 311.573 291.746 320.92 268.926C326.71 254.786 332.89 240.946 337.63 226.616C337.763 226.216 337.637 226.099 337.25 226.266L327.1 230.676C326.733 230.836 326.533 230.716 326.5 230.316C325.853 222.616 325.88 214.936 326.58 207.276C327.67 195.266 334.12 189.026 344.64 184.056C344.947 183.909 345.04 183.676 344.92 183.356C341.887 175.302 340.393 166.969 340.44 158.356C340.447 157.982 340.27 157.749 339.91 157.656C332.36 155.576 325.02 152.706 319.27 147.216C319.221 147.171 319.165 147.136 319.103 147.113C319.041 147.09 318.975 147.08 318.909 147.083C318.843 147.086 318.778 147.101 318.718 147.129C318.658 147.157 318.604 147.197 318.56 147.246L315.65 150.476C315.612 150.517 315.585 150.567 315.569 150.621C315.554 150.674 315.551 150.73 315.56 150.785C315.57 150.839 315.592 150.89 315.625 150.934C315.658 150.977 315.701 151.012 315.75 151.036C320.55 153.402 324.703 156.386 328.21 159.986C330.34 162.176 330.2 164.516 329.22 167.146C329.107 167.452 328.897 167.672 328.59 167.806C320.7 171.216 316.57 153.296 304.64 160.246C303.227 161.066 301.623 162.766 299.83 165.346C297.41 168.832 294.753 172.162 291.86 175.336C291.62 175.596 291.637 175.839 291.91 176.066C300.65 183.466 307.54 190.556 311.51 201.606C311.63 201.952 311.51 202.139 311.15 202.166C292.23 203.536 280.48 204.456 265.78 203.536C265.433 203.516 265.203 203.669 265.09 203.996C254.23 235.476 257.3 269.536 257.27 303.146C257.223 355.846 257.3 408.602 257.5 461.416C258.373 463.469 257.483 465.572 254.83 467.726C254.57 467.932 254.273 468.042 253.94 468.056C250.013 468.202 248.347 466.662 248.94 463.436L248.2 255.716C248.193 255.409 248.047 255.299 247.76 255.386C241.42 257.332 234.927 258.216 228.28 258.036C228.116 258.033 227.954 258.073 227.81 258.152C227.666 258.231 227.545 258.346 227.46 258.486L222.34 266.876C222.314 266.918 222.297 266.965 222.29 267.014C222.283 267.064 222.286 267.114 222.299 267.163C222.312 267.211 222.335 267.257 222.366 267.297C222.397 267.337 222.436 267.37 222.48 267.396C233.46 273.476 236.24 282.396 236.56 295.056C236.727 301.682 236.323 308.289 235.35 314.876C235.338 314.953 235.308 315.027 235.263 315.091C235.219 315.155 235.16 315.208 235.093 315.245C235.025 315.283 234.95 315.305 234.873 315.308C234.796 315.312 234.72 315.297 234.65 315.266C228.25 312.406 222.183 308.959 216.45 304.926C216.408 304.898 216.358 304.884 216.308 304.885C216.258 304.885 216.209 304.901 216.167 304.931C216.126 304.96 216.095 305.001 216.078 305.048C216.06 305.095 216.058 305.147 216.07 305.196C225.1 337.596 230.69 370.886 235.25 404.166C237.27 418.886 237.64 433.366 237.22 447.646C237.12 450.939 237.4 454.019 238.06 456.886C237.47 462.886 228.58 462.806 228.57 456.236C228.563 450.369 228.537 444.189 228.49 437.696C228.484 436.997 228.282 436.313 227.908 435.723C227.533 435.132 227 434.659 226.37 434.356L216.2 429.466C215.88 429.312 215.63 429.389 215.45 429.696C195.68 462.986 147.65 442.786 122.12 430.586C121.273 430.179 121.053 429.552 121.46 428.706L123.57 424.306C123.603 424.237 123.621 424.163 123.625 424.088C123.629 424.012 123.619 423.937 123.593 423.866C123.568 423.796 123.529 423.731 123.479 423.676C123.429 423.621 123.368 423.577 123.3 423.546C111.207 417.992 99.7399 411.389 88.8999 403.736C87.0533 402.436 85.4899 400.862 84.2099 399.016C84.0166 398.742 83.95 398.442 84.01 398.116C84.3033 396.516 84.9866 395.416 86.06 394.816C94.5933 390.022 103.39 385.122 112.45 380.116C112.706 379.975 112.906 379.751 113.017 379.481C113.128 379.212 113.143 378.914 113.06 378.636L110.33 369.176C110.295 369.05 110.291 368.917 110.319 368.789C110.347 368.661 110.406 368.542 110.491 368.442C110.576 368.342 110.684 368.265 110.806 368.217C110.928 368.169 111.06 368.151 111.19 368.166L117.46 368.916C117.596 368.933 117.734 368.92 117.865 368.879C117.997 368.838 118.118 368.77 118.221 368.678C118.324 368.587 118.406 368.474 118.463 368.348C118.52 368.221 118.549 368.084 118.55 367.946V362.166C118.55 362.052 118.574 361.94 118.622 361.837C118.67 361.734 118.739 361.643 118.826 361.569C118.913 361.496 119.014 361.443 119.124 361.413C119.233 361.383 119.348 361.377 119.46 361.396L138.52 364.556C138.629 364.573 138.742 364.563 138.847 364.527C138.952 364.492 139.046 364.431 139.122 364.35C139.198 364.269 139.253 364.171 139.282 364.064C139.312 363.957 139.314 363.844 139.29 363.736C138.77 361.349 138.463 358.876 138.37 356.316C138.323 355.029 139.133 354.466 140.8 354.626C140.76 354.932 140.843 355.089 141.05 355.096C160.55 355.726 190.64 357.236 205.34 372.116C217 383.916 220.3 403.176 217.56 419.116C217.534 419.272 217.558 419.431 217.628 419.572C217.698 419.712 217.811 419.826 217.95 419.896L228.44 425.196C228.84 425.396 229.017 425.276 228.97 424.836C225.97 396.249 221.43 367.909 215.35 339.816C214.37 335.286 213.33 334.176 209.88 331.496C197.5 321.926 183.3 314.286 169.91 306.036C169.61 305.849 169.327 305.872 169.06 306.106C154.41 318.956 141.31 331.116 122.52 335.296C111.8 336.022 101.15 335.706 90.57 334.346C90.1566 334.292 89.99 334.062 90.07 333.656C91.97 324.369 95.3599 315.672 100.24 307.566C100.294 307.478 100.324 307.378 100.329 307.275C100.334 307.172 100.312 307.069 100.266 306.975C100.221 306.882 100.152 306.801 100.067 306.74C99.9825 306.679 99.8836 306.64 99.7799 306.626C69.5899 303.046 46.0099 281.116 37.7999 252.416C36.9199 249.346 36.6499 245.196 35.8299 241.596C35.7954 241.432 35.7278 241.277 35.6314 241.141C35.5351 241.005 35.412 240.891 35.2699 240.806C26.2999 235.316 21.2099 225.846 23.5799 215.386C27.2999 198.966 40.7899 187.476 56.3599 182.196C56.5186 182.143 56.6632 182.054 56.7827 181.936C56.9023 181.818 56.9937 181.675 57.0499 181.516C58.2599 178.116 59.22 174.186 60.64 171.336C68.65 155.266 87.03 148.596 104.19 149.846L118.61 154.056C118.937 154.149 119.25 154.116 119.55 153.956C127.07 149.942 134.863 146.556 142.93 143.796C148.04 142.046 150.7 140.586 152.99 136.016C158.75 124.509 164.51 112.979 170.27 101.426C170.423 101.126 170.637 101.072 170.91 101.266L177.75 106.196C178.097 106.449 178.293 106.362 178.34 105.936C178.953 100.089 180.373 90.8091 182.6 78.0958C182.913 76.3091 182.497 75.1025 181.35 74.4758C179.443 70.4891 178.37 67.7658 178.13 66.3058C176.24 54.8758 186.74 51.2858 195.75 53.8358C195.909 53.8803 196.075 53.8865 196.237 53.854C196.398 53.8214 196.55 53.7509 196.678 53.6484C196.807 53.5459 196.91 53.4142 196.978 53.2643C197.046 53.1143 197.078 52.9503 197.07 52.7858C196.33 37.6758 210.54 34.9058 222.15 38.2858C229.557 40.4325 236.923 42.7125 244.25 45.1258C246.12 45.7358 248.82 46.3058 250.74 45.9658C262.89 43.8558 275.33 46.6458 284.06 55.6958C284.172 55.8145 284.314 55.9018 284.472 55.9491C284.629 55.9964 284.798 56.0022 284.96 55.9658C293.067 53.9858 299.923 53.4591 305.53 54.3858C312.81 55.5858 320.9 61.1458 321.61 69.0758C321.94 72.7458 320.13 77.1758 318.39 80.5658C318.349 80.646 318.328 80.7351 318.329 80.8253C318.33 80.9155 318.353 81.004 318.397 81.083C318.44 81.1621 318.503 81.2292 318.578 81.2785C318.654 81.3278 318.74 81.3578 318.83 81.3658C323.863 81.7925 328.66 82.7925 333.22 84.3658ZM220.84 64.3758C230.8 61.4458 242.86 61.4458 254.48 62.8758C254.78 62.9158 254.933 62.7825 254.94 62.4758L255.09 57.6858C255.103 57.2925 254.92 57.0425 254.54 56.9358C251.73 56.1558 248.57 55.8258 245.95 55.0058C234.17 51.3158 222.04 46.1758 209.34 46.6558C208.993 46.6691 208.707 46.8091 208.48 47.0758C202.5 54.3058 209.53 63.8158 213.09 69.7658C213.323 70.1525 213.58 70.1691 213.86 69.8158C216.233 66.8625 218.56 65.0491 220.84 64.3758ZM264.29 58.4758L263.06 66.0258C263.007 66.3391 263.133 66.5325 263.44 66.6058L268.23 67.7458C268.391 67.7842 268.56 67.7743 268.716 67.7175C268.872 67.6607 269.009 67.5593 269.11 67.4258L275.08 59.5458C275.166 59.4316 275.226 59.2995 275.255 59.1592C275.284 59.0188 275.281 58.8738 275.246 58.7348C275.212 58.5957 275.147 58.4662 275.056 58.3556C274.965 58.245 274.85 58.1563 274.72 58.0958C270.307 56.0491 265.68 54.7458 260.84 54.1858C260.773 54.1758 260.705 54.1885 260.647 54.2218C260.589 54.255 260.543 54.307 260.518 54.3693C260.492 54.4316 260.489 54.5006 260.507 54.5653C260.526 54.6299 260.565 54.6865 260.62 54.7258L263.77 57.1658C263.966 57.3173 264.118 57.5189 264.21 57.7494C264.301 57.9799 264.329 58.2309 264.29 58.4758ZM186.84 63.3158C191.35 76.7858 202.18 85.1158 213.26 94.9358C213.318 94.9892 213.391 95.0216 213.469 95.0282C213.547 95.0347 213.625 95.015 213.692 94.9721C213.759 94.9292 213.81 94.8653 213.839 94.7902C213.867 94.7151 213.871 94.6328 213.85 94.5558C210.743 83.3891 205.973 72.9758 199.54 63.3158C199.426 63.1453 199.28 62.9997 199.11 62.888C198.939 62.7763 198.749 62.7007 198.55 62.6658C194.777 61.9725 190.997 61.9825 187.21 62.6958C186.85 62.7625 186.727 62.9691 186.84 63.3158ZM274.84 73.1258C277.393 75.4125 279.233 78.1891 280.36 81.4558C280.507 81.8758 280.737 81.9291 281.05 81.6158C284.37 78.3558 288.38 74.7758 292.89 73.3158C293.197 73.2158 293.467 73.2791 293.7 73.5058C296.43 76.1158 294.4 79.3958 292.42 81.8958C287.71 87.8258 279.75 91.5458 279.41 99.8558C279.397 100.189 279.537 100.276 279.83 100.116C289.49 94.9458 303.88 87.0458 310.26 78.3258C313.93 73.3158 313.75 64.2458 305.81 63.2258C293.963 61.7058 283.64 64.8391 274.84 72.6258C274.805 72.6576 274.778 72.6963 274.759 72.7393C274.74 72.7824 274.73 72.8288 274.73 72.8758C274.73 72.9228 274.74 72.9693 274.759 73.0123C274.778 73.0553 274.805 73.094 274.84 73.1258ZM226.6 71.4158C233.96 78.9358 240.483 86.4491 246.17 93.9558C249.64 98.5458 260.07 98.8158 258.3 91.4758C258.213 91.0958 257.98 90.9558 257.6 91.0558C252.07 92.5558 246.22 92.5058 243.26 86.9058C243.12 86.6258 243.097 86.3391 243.19 86.0458C244.68 81.4958 253.41 82.4458 258.46 82.9358C275.48 84.5758 259.23 123.676 237.99 96.6458C232.29 89.3858 226.98 81.6758 219.02 76.6758C218.977 76.6462 218.926 76.6298 218.874 76.6286C218.821 76.6274 218.77 76.6414 218.725 76.669C218.681 76.6965 218.645 76.7364 218.623 76.7838C218.601 76.8311 218.593 76.884 218.6 76.9358C220.213 91.1825 223.197 105.129 227.55 118.776C227.65 119.082 227.847 119.179 228.14 119.066C238.48 115.152 248.937 111.579 259.51 108.346C263.86 107.016 268.12 105.196 270.34 100.956C273.05 95.7758 274.79 87.9058 271.47 82.6458C262.41 68.2958 240.96 70.8358 226.65 71.2758C226.634 71.2764 226.618 71.2817 226.606 71.2912C226.593 71.3006 226.583 71.3138 226.577 71.3288C226.572 71.3439 226.571 71.3603 226.575 71.3758C226.579 71.3913 226.588 71.4052 226.6 71.4158ZM208.87 101.266C202.47 96.1991 196.227 90.9158 190.14 85.4158C189.887 85.1891 189.737 85.2425 189.69 85.5758C188.737 92.5758 187.867 99.5758 187.08 106.576C186.48 111.846 186.26 115.966 189.87 120.116C195.03 126.049 200.343 131.769 205.81 137.276C205.863 137.329 205.928 137.369 206 137.392C206.072 137.415 206.148 137.419 206.222 137.405C206.296 137.391 206.366 137.36 206.425 137.313C206.484 137.266 206.53 137.205 206.56 137.136C208.58 132.536 211.343 128.369 214.85 124.636C216.6 122.756 218.02 121.116 217.61 118.316C216.65 111.636 214.27 105.546 208.87 101.266ZM243.99 149.396C262.7 165.146 296.33 163.016 310.72 142.506C321.04 127.806 326.41 111.366 332.19 93.7758C332.29 93.4625 332.18 93.2558 331.86 93.1558C323.78 90.6358 314.77 87.6558 307.47 93.1258C285.31 109.716 259.41 118.206 231.39 126.656C231.083 126.749 230.97 126.956 231.05 127.276C233.363 136.716 237.677 144.089 243.99 149.396ZM393.92 103.826C386.54 100.659 379.427 100.386 372.58 103.006C347.9 112.416 362.36 144.226 368.75 160.046C368.877 160.366 369.06 160.402 369.3 160.156C371.35 158.036 372.24 155.926 372.44 152.796C373.05 143.656 373.31 134.806 377.67 126.226C381.34 118.996 388.35 111.416 394.12 104.696C394.176 104.629 394.216 104.549 394.237 104.464C394.257 104.379 394.258 104.291 394.238 104.206C394.219 104.122 394.18 104.043 394.125 103.977C394.069 103.911 393.999 103.859 393.92 103.826ZM443.21 149.346C443.207 149.405 443.225 149.462 443.26 149.509C443.296 149.556 443.346 149.589 443.404 149.602C443.461 149.615 443.521 149.608 443.573 149.581C443.626 149.554 443.667 149.51 443.69 149.456C446.25 142.046 445.1 132.246 443.65 124.476C443.45 123.416 443.88 122.802 444.94 122.636L455.14 121.056C455.507 120.996 455.59 120.809 455.39 120.496C442.71 100.176 419.26 98.4658 399.95 110.126C399.869 110.176 399.806 110.253 399.772 110.343C399.738 110.433 399.734 110.531 399.762 110.622C399.79 110.713 399.847 110.792 399.924 110.845C400.002 110.898 400.096 110.923 400.19 110.916C414.1 110.236 429.32 113.826 438.15 125.366C443.71 132.626 444.36 140.366 443.21 149.346ZM269.69 175.086C276.59 174.539 282.667 171.939 287.92 167.286C288.28 166.966 288.22 166.849 287.74 166.936C280.833 168.216 273.977 168.516 267.17 167.836C243.38 164.776 228.26 151.386 223.1 127.646C223.087 127.576 223.054 127.511 223.004 127.46C222.955 127.409 222.891 127.374 222.822 127.359C222.752 127.344 222.68 127.35 222.614 127.376C222.547 127.402 222.49 127.447 222.45 127.506C217.87 133.726 214.177 140.422 211.37 147.596C211.121 148.23 210.636 148.742 210.017 149.026C209.398 149.309 208.692 149.342 208.05 149.116C206.043 148.416 204.033 147.079 202.02 145.106C192.507 135.772 183.38 126.139 174.64 116.206C174.569 116.125 174.474 116.068 174.369 116.043C174.264 116.018 174.153 116.027 174.053 116.067C173.953 116.108 173.868 116.179 173.811 116.27C173.753 116.361 173.724 116.468 173.73 116.576C174.78 140.436 191.65 161.326 212.62 170.526C229.93 178.126 251.26 177.536 269.69 175.086ZM402.54 120.366C388.93 118.696 382.19 132.036 380.48 143.606C380.433 143.946 380.537 144.006 380.79 143.786C392.56 133.706 404.23 131.936 418.26 129.356C420.72 128.902 422.927 128.029 424.88 126.736C424.972 126.674 425.079 126.637 425.189 126.627C425.3 126.617 425.412 126.634 425.514 126.678C425.616 126.722 425.705 126.79 425.775 126.877C425.844 126.964 425.89 127.066 425.91 127.176C426.603 131.062 427.58 134.769 428.84 138.296C432.22 147.796 419.9 148.766 418.86 140.376C418.853 140.316 418.857 140.259 418.87 140.206L419.52 138.346C419.633 138.019 419.517 137.866 419.17 137.886C406.26 138.866 391.5 142.806 383.47 153.446C383.414 153.517 383.382 153.604 383.379 153.694C383.376 153.784 383.403 153.873 383.454 153.947C383.506 154.021 383.58 154.076 383.666 154.105C383.752 154.134 383.844 154.134 383.93 154.106C398.163 149.872 412.7 148.616 427.54 150.336C431.01 150.736 435.34 148.146 435.44 144.116C435.76 130.356 424.51 119.546 410.83 120.286C407.51 119.226 404.747 119.252 402.54 120.366ZM124.14 162.216C131.89 162.836 140.8 163.196 147.15 165.916C159.43 171.176 165.14 184.606 164.83 197.846C164.18 224.976 156.96 251.016 145.66 275.956C145.493 276.329 145.593 276.426 145.96 276.246C162.89 267.866 182.41 256.516 191.35 238.976C193.337 235.089 195.247 229.512 197.08 222.246C200.79 207.556 203.09 192.526 205.73 177.596C205.79 177.256 205.67 177.002 205.37 176.836C185.48 165.556 172.27 151.066 166.58 128.546C166.563 128.469 166.52 128.401 166.459 128.352C166.398 128.302 166.322 128.275 166.244 128.274C166.165 128.273 166.089 128.298 166.027 128.345C165.964 128.393 165.92 128.46 165.9 128.536C162.84 138.946 159.57 148.456 148.14 152.026C139.71 154.676 131.61 157.256 124.09 162.026C124.072 162.036 124.058 162.052 124.051 162.071C124.043 162.09 124.042 162.111 124.047 162.132C124.053 162.153 124.064 162.172 124.081 162.187C124.098 162.202 124.118 162.212 124.14 162.216ZM460.79 134.886C460.46 131.586 455.68 130.376 453.07 130.646C452.783 130.672 452.64 130.832 452.64 131.126C452.72 137.552 452.287 143.952 451.34 150.326C451.287 150.686 451.427 150.789 451.76 150.636C458.507 147.529 461.517 142.279 460.79 134.886ZM325.07 135.136C324.18 143.616 334.81 147.316 341.16 149.146C341.46 149.232 341.637 149.126 341.69 148.826L343.78 138.076C343.808 137.947 343.787 137.813 343.72 137.7C343.653 137.587 343.546 137.503 343.42 137.466C337.753 135.739 331.963 134.686 326.05 134.306C325.811 134.292 325.576 134.37 325.394 134.524C325.211 134.679 325.095 134.898 325.07 135.136ZM368.65 200.746C379.6 210.946 396.17 218.386 411.62 214.936C417.38 213.646 424.24 210.946 429.98 210.356C434.807 209.856 439.59 210.099 444.33 211.086C444.405 211.102 444.482 211.095 444.553 211.066C444.624 211.037 444.684 210.987 444.726 210.924C444.768 210.86 444.79 210.785 444.789 210.709C444.788 210.632 444.764 210.558 444.72 210.496C440.84 204.976 435.5 200.316 428.3 201.606C421.52 202.826 413.89 204.636 407.52 204.456C372.07 203.496 361.3 168.266 352.76 140.696C352.725 140.573 352.65 140.466 352.547 140.39C352.445 140.314 352.32 140.274 352.192 140.277C352.065 140.279 351.941 140.323 351.842 140.403C351.742 140.482 351.671 140.592 351.64 140.716C345.79 162.636 352.06 185.296 368.65 200.746ZM445.42 158.646L427.57 158.526C409.05 156.686 389.83 158.526 373.37 168.236C373.05 168.422 372.95 168.692 373.07 169.046C377.457 182.166 386.29 190.836 399.57 195.056C414.84 199.906 430.14 190.086 437.04 177.096C438.65 174.066 441.37 172.036 445 171.246C452.96 169.516 461.85 168.046 467.88 161.636C468.006 161.501 468.089 161.33 468.115 161.146C468.142 160.962 468.112 160.774 468.03 160.606L464.48 153.416C464.313 153.069 464.063 152.996 463.73 153.196C458.13 156.549 452.027 158.366 445.42 158.646ZM66.95 184.366C63.54 190.916 56.27 191.486 50.44 194.616C40.92 199.726 32.8499 209.386 32.2699 220.556C31.7699 230.306 42.2399 235.066 49.6699 238.146C56.3366 240.899 63.0133 243.626 69.7 246.326C75.95 248.856 80.0399 256.486 83.6799 261.486C94.6699 276.606 112.74 282.236 130.55 280.576C132.67 280.376 134.87 278.896 135.9 276.806C141.687 265.072 146.067 252.789 149.04 239.956C149.12 239.622 149.013 239.369 148.72 239.196C141.833 234.969 134.363 232.316 126.31 231.236C111.77 229.276 99.8299 229.616 82.4899 228.946C65.9599 228.306 55.82 217.836 63.7 201.246C65.0933 198.312 66.4799 195.679 67.8599 193.346C74.5299 184.536 82.86 179.916 92.33 175.116C92.63 174.962 92.8733 174.746 93.06 174.466C98.42 166.246 110.26 165.536 117.61 163.576C118.13 163.436 118.147 163.249 117.66 163.016C103.11 156.076 81.1 158.116 70.82 171.616C68.2133 175.042 66.9233 179.292 66.95 184.366ZM118.8 173.956C120.34 178.476 123.08 186.456 127.11 188.776C138.03 195.056 148.51 202.766 155.43 213.466C155.466 213.525 155.52 213.571 155.584 213.598C155.647 213.625 155.718 213.631 155.785 213.615C155.853 213.6 155.914 213.564 155.959 213.512C156.005 213.46 156.033 213.395 156.04 213.326C157.067 204.812 156.757 196.389 155.11 188.056C153.35 179.102 148.373 174.292 140.18 173.626C132.733 171.752 125.573 171.626 118.7 173.246C118.622 173.264 118.549 173.301 118.487 173.353C118.426 173.405 118.378 173.47 118.347 173.544C118.315 173.618 118.302 173.699 118.308 173.779C118.314 173.859 118.338 173.937 118.38 174.006C118.733 174.586 118.873 174.569 118.8 173.956ZM103.91 179.156C106.84 183.656 112.92 187.786 117.28 189.496C117.363 189.526 117.453 189.531 117.539 189.508C117.625 189.485 117.701 189.436 117.758 189.369C117.815 189.301 117.849 189.217 117.857 189.129C117.864 189.041 117.844 188.952 117.8 188.876L109.91 175.646C109.703 175.286 109.397 175.149 108.99 175.236L105.22 176.016C104.892 176.084 104.585 176.231 104.326 176.444C104.068 176.657 103.865 176.931 103.736 177.24C103.607 177.549 103.555 177.886 103.586 178.219C103.616 178.553 103.727 178.875 103.91 179.156ZM456.08 176.896C446.66 179.376 442.03 185.136 436.35 192.376C436.314 192.421 436.292 192.475 436.287 192.533C436.282 192.59 436.294 192.648 436.322 192.698C436.35 192.749 436.392 192.79 436.443 192.816C436.495 192.842 436.553 192.853 436.61 192.846C445.1 191.776 452.32 184.346 456.46 177.406C456.497 177.348 456.516 177.279 456.513 177.21C456.511 177.141 456.487 177.075 456.446 177.02C456.405 176.964 456.348 176.923 456.282 176.901C456.217 176.878 456.146 176.877 456.08 176.896ZM233.34 184.726C226.953 184.239 220.717 183.002 214.63 181.016C214.25 180.896 214.023 181.032 213.95 181.426C212.23 190.319 211.123 199.289 210.63 208.336C210.57 209.429 210.66 210.286 210.9 210.906C210.974 211.093 211.096 211.257 211.254 211.381C211.412 211.506 211.6 211.586 211.799 211.615C211.998 211.643 212.201 211.618 212.387 211.543C212.573 211.468 212.737 211.344 212.86 211.186C218.773 203.586 225.067 196.502 231.74 189.936C232.82 188.866 233.45 187.246 234.04 185.886C234.093 185.764 234.116 185.632 234.108 185.499C234.099 185.367 234.059 185.238 233.99 185.125C233.921 185.011 233.827 184.916 233.714 184.846C233.6 184.777 233.472 184.736 233.34 184.726ZM297.89 193.116C291.25 185.706 284.82 177.966 273.78 183.716C269.72 185.826 268.44 190.266 268.1 194.486C268.073 194.806 268.22 194.972 268.54 194.986C278.273 195.406 287.967 195.022 297.62 193.836C298.173 193.769 298.263 193.529 297.89 193.116ZM69.7899 213.626C69.5799 218.526 81.91 220.766 85.07 220.796C89.2366 220.849 93.4533 220.879 97.7199 220.886C98.1999 220.886 98.2633 220.722 97.9099 220.396C87.5199 210.686 87.9899 196.826 97.4799 186.786C98.4266 185.779 98.6366 184.846 98.1099 183.986C97.9099 183.666 97.6233 183.506 97.25 183.506C95.5966 183.499 93.7699 183.932 91.7699 184.806C80.0799 189.916 70.3699 200.476 69.7899 213.626ZM243.52 184.996C243.498 184.996 243.476 185.004 243.46 185.019C243.443 185.033 243.432 185.054 243.43 185.076C241.02 197.666 240.17 215.116 250.53 224.826C250.83 225.099 251.013 225.036 251.08 224.636C253.32 211.302 256.967 198.359 262.02 185.806C262.413 184.826 262.083 184.386 261.03 184.486C255.33 184.992 249.493 185.162 243.52 184.996ZM106.63 217.966C109.177 220.026 111.233 221.076 112.8 221.116C125.813 221.442 138.757 224.736 151.63 230.996C151.675 231.018 151.725 231.029 151.775 231.026C151.826 231.024 151.875 231.008 151.917 230.981C151.959 230.953 151.994 230.916 152.017 230.871C152.041 230.826 152.052 230.776 152.05 230.726C151.44 219.736 144.61 210.556 135.6 204.676C135.32 204.496 135.103 204.552 134.95 204.846C131.417 211.679 125.867 215.426 118.3 216.086C115 216.376 111.51 216.706 109.24 214.926C102.11 209.316 109.68 197.896 113.06 207.626C113.113 207.776 113.208 207.907 113.334 208.006C113.459 208.105 113.61 208.168 113.77 208.186C119.11 208.836 126.45 204.126 130.22 200.596C130.27 200.547 130.306 200.485 130.324 200.416C130.342 200.348 130.342 200.277 130.322 200.209C130.303 200.141 130.265 200.08 130.214 200.032C130.162 199.984 130.099 199.951 130.03 199.936C125.877 199.076 121.633 198.536 117.3 198.316C112.86 198.086 107.43 193.946 103.85 191.456C103.774 191.402 103.689 191.363 103.598 191.343C103.507 191.323 103.412 191.321 103.32 191.338C103.228 191.354 103.14 191.389 103.061 191.441C102.982 191.492 102.913 191.558 102.86 191.636C95.9799 201.582 97.2366 210.359 106.63 217.966ZM349.08 191.636C335.96 196.096 333.94 205.666 334.6 218.096C334.633 218.682 334.893 218.812 335.38 218.486C342.99 213.386 348.75 206.286 354.51 199.196C354.783 198.862 354.793 198.519 354.54 198.166L350.01 191.926C349.777 191.599 349.467 191.502 349.08 191.636ZM233.04 201.136L217.68 218.186C217.32 218.592 217.307 219.009 217.64 219.436L224.07 227.616C224.33 227.942 224.66 228.056 225.06 227.956C229.987 226.689 234.983 226.262 240.05 226.676C240.47 226.709 240.56 226.549 240.32 226.196C235.327 218.796 233.21 210.576 233.97 201.536C234.057 200.482 233.747 200.349 233.04 201.136ZM370.53 214.096C367.617 211.082 364.423 208.392 360.95 206.026C360.732 205.879 360.47 205.812 360.21 205.836C359.949 205.86 359.705 205.973 359.52 206.156C351.693 213.882 346.45 223.106 343.79 233.826C343.777 233.876 343.779 233.928 343.795 233.977C343.811 234.026 343.841 234.07 343.881 234.102C343.921 234.135 343.969 234.156 344.02 234.161C344.072 234.167 344.124 234.158 344.17 234.136C353.97 229.536 361.9 221.436 370.45 215.146C370.877 214.826 370.903 214.476 370.53 214.096ZM224.14 237.316C215.57 236.176 211.3 226.246 207.77 219.516C207.724 219.43 207.652 219.36 207.565 219.316C207.478 219.272 207.38 219.255 207.283 219.268C207.187 219.281 207.096 219.323 207.024 219.389C206.952 219.455 206.902 219.541 206.88 219.636C203.47 234.816 199.2 248.716 187.21 259.486C179.163 266.712 172.6 271.742 167.52 274.576C152.987 282.689 138.92 291.532 125.32 301.106C120.79 304.296 111.77 306.586 108.3 311.876C105.907 315.529 103.73 320.182 101.77 325.836C101.663 326.142 101.77 326.299 102.09 326.306C108.74 326.406 116.6 326.916 122.83 325.656C136.69 322.846 150.25 310.376 161.78 300.076C174.3 288.886 186.83 281.826 202.25 272.286C215.29 264.216 221.5 252.436 225.93 238.336C226.023 238.042 225.927 237.836 225.64 237.716C225.14 237.516 224.64 237.382 224.14 237.316ZM248.5 235.496L235.37 234.736C235.099 234.722 234.833 234.815 234.63 234.994C234.426 235.173 234.3 235.425 234.28 235.696C233.98 239.862 233.193 243.929 231.92 247.896C231.807 248.236 231.93 248.396 232.29 248.376C236.823 248.176 241.313 247.612 245.76 246.686C250.39 245.716 249.13 239.456 249.02 236.026C249.017 235.889 248.962 235.759 248.866 235.661C248.77 235.562 248.639 235.503 248.5 235.496ZM45.26 245.906C50.69 270.826 69.9299 291.146 94.8399 296.626C106.39 299.166 116.62 297.376 125.84 290.356C125.895 290.314 125.937 290.255 125.958 290.189C125.979 290.122 125.979 290.051 125.958 289.984C125.938 289.918 125.897 289.859 125.842 289.816C125.787 289.774 125.72 289.749 125.65 289.746C101.08 288.586 85.57 280.346 72.25 259.666C69.91 256.026 66.5499 253.836 62.7999 252.566C56.9133 250.572 51.1666 248.269 45.5599 245.656C45.5228 245.64 45.4821 245.635 45.4422 245.641C45.4024 245.647 45.3649 245.664 45.334 245.69C45.303 245.715 45.2798 245.749 45.2667 245.787C45.2537 245.825 45.2513 245.866 45.26 245.906ZM407.94 318.386C408.56 321.119 407.507 322.949 404.78 323.876C386.71 330.026 367.27 339.136 353.1 351.466C352.813 351.719 352.86 351.876 353.24 351.936C365.64 353.906 378.2 354.126 390.8 355.526C391.187 355.566 391.37 355.779 391.35 356.166C391.263 357.852 390.717 359.339 389.71 360.626C389.584 360.781 389.428 360.909 389.251 361.004C389.074 361.098 388.88 361.157 388.68 361.176C374.52 362.362 360.68 360.832 347.16 356.586C346.994 356.535 346.818 356.529 346.65 356.57C346.483 356.61 346.331 356.695 346.21 356.816L341.67 361.336C341.596 361.409 341.54 361.5 341.508 361.599C341.476 361.699 341.469 361.805 341.486 361.908C341.504 362.011 341.546 362.108 341.61 362.191C341.673 362.274 341.755 362.341 341.85 362.386L363.09 372.186C363.55 372.399 363.643 372.719 363.37 373.146L361.29 376.376C361.216 376.493 361.108 376.586 360.979 376.641C360.851 376.697 360.708 376.712 360.57 376.686C351.85 375.036 343.85 370.316 336.25 366.106C335.948 365.939 335.602 365.869 335.259 365.905C334.915 365.94 334.591 366.08 334.33 366.306L328.36 371.486C328.195 371.63 328.063 371.808 327.973 372.008C327.883 372.207 327.837 372.424 327.838 372.643C327.839 372.862 327.887 373.078 327.979 373.277C328.071 373.476 328.204 373.653 328.37 373.796C339.163 383.056 351.137 385.862 364.29 382.216C365.583 381.856 366.527 381.419 367.12 380.906C372.413 376.352 377.967 372.149 383.78 368.296C388.53 365.156 393.61 361.326 396.27 357.546C407.61 341.436 414.5 323.746 421.07 305.326C421.103 305.236 421.118 305.14 421.114 305.045C421.11 304.949 421.086 304.855 421.045 304.768C421.004 304.682 420.947 304.604 420.875 304.54C420.804 304.476 420.72 304.427 420.63 304.396L416.8 303.056C416.642 302.999 416.51 302.889 416.426 302.745C416.342 302.6 416.311 302.431 416.34 302.266C418.05 291.636 422.23 281.026 425.41 270.776C425.523 270.416 425.397 270.269 425.03 270.336C410.943 272.702 397.437 276.886 384.51 282.886C384.306 282.981 384.075 283 383.859 282.939C383.642 282.879 383.455 282.743 383.33 282.556L381.31 279.586C381.117 279.292 380.857 279.202 380.53 279.316C366.883 283.989 353.607 289.536 340.7 295.956C340.307 296.156 340.26 296.416 340.56 296.736C340.793 296.996 341.057 297.209 341.35 297.376C341.603 297.516 341.813 297.699 341.98 297.926C342.86 299.152 343.047 300.279 342.54 301.306C333.127 320.379 327.763 340.562 326.45 361.856C326.437 362.102 326.533 362.159 326.74 362.026C331.77 358.826 335.1 356.666 336.39 352.736C341.663 336.762 346.133 321.479 349.8 306.886C350.19 305.316 351.32 303.486 352 301.926C352.211 301.447 352.583 301.057 353.051 300.824C353.519 300.592 354.053 300.533 354.56 300.656C357.03 301.256 358.11 303.016 357.36 305.566C353.387 319.006 349.587 332.492 345.96 346.026C345.88 346.339 345.977 346.409 346.25 346.236C350.12 343.786 358.26 339.026 359.99 334.776C365.21 321.976 373.92 310.196 383.65 299.186C386.23 296.266 389.293 293.966 392.84 292.286C392.971 292.223 393.118 292.199 393.261 292.217C393.405 292.235 393.54 292.293 393.65 292.386L396.43 294.736C396.75 295.009 396.837 295.346 396.69 295.746C396.17 297.119 395.35 298.296 394.23 299.276C384.117 308.096 375.877 318.462 369.51 330.376C369.25 330.869 369.367 330.986 369.86 330.726C377.49 326.726 401.1 315.316 407.36 317.716C407.673 317.836 407.867 318.059 407.94 318.386ZM201.39 284.576C209.483 291.076 218.147 296.699 227.38 301.446C227.72 301.626 227.907 301.522 227.94 301.136C228.84 290.106 226.92 280.126 217.72 273.126C217.42 272.899 217.113 272.892 216.8 273.106L201.44 283.456C201.35 283.517 201.276 283.598 201.222 283.693C201.169 283.788 201.139 283.895 201.134 284.003C201.13 284.112 201.15 284.22 201.195 284.32C201.239 284.419 201.306 284.507 201.39 284.576ZM176.58 299.826C188.373 306.332 199.807 313.426 210.88 321.106C210.97 321.168 211.075 321.202 211.184 321.206C211.293 321.21 211.401 321.182 211.495 321.126C211.589 321.07 211.664 320.989 211.713 320.891C211.762 320.794 211.781 320.684 211.77 320.576C210.19 307.349 204.087 296.816 193.46 288.976C193.207 288.789 192.937 288.769 192.65 288.916C187.16 291.816 180.74 294.866 176.53 299.516C176.509 299.538 176.494 299.565 176.486 299.594C176.477 299.623 176.475 299.653 176.48 299.683C176.485 299.713 176.496 299.741 176.513 299.766C176.531 299.791 176.554 299.811 176.58 299.826ZM306.18 353.066L299.62 388.206C299.615 388.231 299.618 388.256 299.629 388.279C299.64 388.302 299.658 388.321 299.68 388.333C299.702 388.346 299.728 388.35 299.753 388.347C299.778 388.344 299.801 388.333 299.82 388.316L317.65 371.736C317.901 371.504 318.054 371.186 318.08 370.846L318.82 359.266C323.1 340.006 325.73 321.276 333.5 302.916C333.52 302.867 333.525 302.812 333.513 302.76C333.502 302.708 333.475 302.661 333.435 302.625C333.396 302.589 333.347 302.566 333.294 302.559C333.241 302.552 333.187 302.561 333.14 302.586C328.59 305.016 326.42 307.886 322.7 312.576C315.853 321.202 311.187 330.946 308.7 341.806C307.76 345.912 306.92 349.666 306.18 353.066ZM150.88 380.916C151.235 380.504 151.72 380.225 152.256 380.125C152.792 380.025 153.347 380.11 153.83 380.366C164.01 385.786 172.65 393.336 179.75 403.016C183.41 408.016 187.86 408.066 193.4 409.466C193.733 409.546 193.847 409.426 193.74 409.106C190.073 397.592 185.003 386.752 178.53 376.586C177.97 375.706 177.68 374.179 177.66 372.006C177.653 371.699 177.803 371.562 178.11 371.596C181.83 372.016 184.557 373.606 186.29 376.366C192.223 385.832 196.94 396.716 200.44 409.016C201.76 413.636 206.13 413.926 210.03 414.906C210.37 414.992 210.547 414.862 210.56 414.516C211.99 372.346 184.29 366.746 150.28 363.896C149.793 363.849 149.55 364.072 149.55 364.566V370.116C149.55 370.29 149.503 370.462 149.413 370.612C149.323 370.762 149.194 370.884 149.04 370.966C141.95 374.786 134.19 372.376 126.62 371.796C126.24 371.769 126.05 371.946 126.05 372.326V380.126C126.05 380.584 125.932 381.034 125.708 381.433C125.484 381.832 125.161 382.167 124.77 382.406L98.56 398.336C98.4868 398.38 98.4256 398.442 98.3816 398.516C98.3376 398.589 98.312 398.672 98.3071 398.758C98.3022 398.843 98.318 398.929 98.3533 399.007C98.3887 399.085 98.4425 399.153 98.51 399.206C109.81 407.766 120.56 412.826 134.94 419.606C135.24 419.746 135.333 419.972 135.22 420.286L133.19 425.926C133.083 426.232 133.18 426.449 133.48 426.576C154.49 434.986 192.78 451.226 208.02 424.526C208.072 424.435 208.106 424.335 208.118 424.23C208.131 424.126 208.123 424.02 208.094 423.919C208.065 423.817 208.016 423.722 207.95 423.639C207.885 423.557 207.803 423.487 207.71 423.436C205.323 422.116 202.773 421.299 200.06 420.986C199.7 420.946 199.387 421.052 199.12 421.306C193.51 426.666 187.21 431.566 179.21 432.476C178.857 432.516 178.61 432.369 178.47 432.036C177.48 429.606 178.25 427.856 180.52 426.446C184.01 424.266 190.39 421.256 192.8 418.096C193.107 417.682 193.01 417.419 192.51 417.306L182.4 414.956C182.248 414.921 182.091 414.924 181.939 414.964C181.788 415.004 181.647 415.08 181.53 415.186C174.73 421.419 166.677 424.826 157.37 425.406C156.99 425.426 156.8 425.246 156.8 424.866V422.356C156.8 422.213 156.838 422.073 156.91 421.95C156.982 421.827 157.085 421.725 157.21 421.656C161.98 418.936 169.68 416.386 173.11 412.276C173.343 411.996 173.29 411.779 172.95 411.626C159.22 405.556 143.78 405.946 129.97 399.876C125.3 397.816 127.12 393.776 131.7 394.636C145.127 397.182 158.1 399.799 170.62 402.486C172.207 402.826 172.397 402.456 171.19 401.376C164.35 395.262 157.667 389.959 151.14 385.466C149.387 384.252 149.3 382.736 150.88 380.916Z" fill="#131825"/>
<path d="M254.48 62.8756C242.86 61.4456 230.8 61.4456 220.84 64.3756C218.56 65.0489 216.233 66.8623 213.86 69.8156C213.58 70.1689 213.323 70.1522 213.09 69.7656C209.53 63.8156 202.5 54.3056 208.48 47.0756C208.707 46.8089 208.993 46.6689 209.34 46.6556C222.04 46.1756 234.17 51.3156 245.95 55.0056C248.57 55.8256 251.73 56.1556 254.54 56.9356C254.92 57.0423 255.103 57.2923 255.09 57.6856L254.94 62.4756C254.933 62.7823 254.78 62.9156 254.48 62.8756Z" fill="#F1B9B2"/>
<path d="M264.29 58.4757C264.329 58.2308 264.301 57.9798 264.21 57.7493C264.118 57.5188 263.966 57.3172 263.77 57.1657L260.62 54.7257C260.565 54.6864 260.526 54.6298 260.507 54.5652C260.489 54.5005 260.492 54.4315 260.518 54.3692C260.543 54.3069 260.589 54.2549 260.647 54.2216C260.705 54.1884 260.773 54.1757 260.84 54.1857C265.68 54.7457 270.307 56.049 274.72 58.0957C274.85 58.1562 274.965 58.2449 275.056 58.3555C275.147 58.4661 275.212 58.5956 275.247 58.7346C275.281 58.8737 275.284 59.0187 275.255 59.1591C275.226 59.2994 275.167 59.4315 275.08 59.5457L269.11 67.4257C269.009 67.5592 268.872 67.6606 268.716 67.7174C268.56 67.7742 268.391 67.7841 268.23 67.7457L263.44 66.6057C263.133 66.5323 263.007 66.339 263.06 66.0257L264.29 58.4757Z" fill="#F1B9B2"/>
<path d="M213.26 94.9357C202.18 85.1157 191.35 76.7857 186.84 63.3157C186.727 62.969 186.85 62.7623 187.21 62.6957C190.997 61.9823 194.777 61.9724 198.55 62.6657C198.749 62.7006 198.939 62.7762 199.109 62.8879C199.28 62.9996 199.426 63.1452 199.54 63.3157C205.973 72.9757 210.743 83.389 213.85 94.5557C213.871 94.6327 213.867 94.715 213.839 94.7901C213.81 94.8652 213.759 94.9291 213.692 94.972C213.625 95.015 213.547 95.0346 213.469 95.0281C213.391 95.0215 213.318 94.9891 213.26 94.9357Z" fill="#F1B9B2"/>
<path d="M274.84 73.1256C274.805 73.0938 274.778 73.0551 274.759 73.0121C274.74 72.9691 274.73 72.9226 274.73 72.8756C274.73 72.8287 274.74 72.7822 274.759 72.7392C274.778 72.6961 274.805 72.6575 274.84 72.6256C283.64 64.839 293.963 61.7057 305.81 63.2257C313.75 64.2457 313.93 73.3156 310.26 78.3256C303.88 87.0456 289.49 94.9456 279.83 100.116C279.537 100.276 279.397 100.189 279.41 99.8556C279.75 91.5456 287.71 87.8256 292.42 81.8956C294.4 79.3956 296.43 76.1156 293.7 73.5056C293.467 73.279 293.197 73.2156 292.89 73.3156C288.38 74.7756 284.37 78.3556 281.05 81.6156C280.737 81.929 280.507 81.8756 280.36 81.4556C279.233 78.189 277.393 75.4123 274.84 73.1256Z" fill="#F1B9B2"/>
<path d="M226.6 71.4157C226.588 71.4051 226.579 71.3912 226.575 71.3757C226.571 71.3602 226.572 71.3438 226.577 71.3288C226.583 71.3137 226.593 71.3006 226.605 71.2911C226.618 71.2817 226.634 71.2763 226.65 71.2757C240.96 70.8357 262.41 68.2957 271.47 82.6457C274.79 87.9057 273.05 95.7757 270.34 100.956C268.12 105.196 263.86 107.016 259.51 108.346C248.937 111.579 238.48 115.152 228.14 119.066C227.847 119.179 227.65 119.082 227.55 118.776C223.197 105.129 220.213 91.1824 218.6 76.9357C218.593 76.8839 218.601 76.8311 218.623 76.7837C218.645 76.7363 218.681 76.6965 218.725 76.6689C218.77 76.6414 218.821 76.6273 218.874 76.6285C218.926 76.6298 218.977 76.6461 219.02 76.6757C226.98 81.6757 232.29 89.3857 237.99 96.6457C259.23 123.676 275.48 84.5757 258.46 82.9357C253.41 82.4457 244.68 81.4957 243.19 86.0457C243.097 86.3391 243.12 86.6257 243.26 86.9057C246.22 92.5057 252.07 92.5557 257.6 91.0557C257.98 90.9557 258.213 91.0957 258.3 91.4757C260.07 98.8157 249.64 98.5457 246.17 93.9557C240.483 86.4491 233.96 78.9357 226.6 71.4157Z" fill="#DC9073"/>
<path d="M208.87 101.266C214.27 105.546 216.65 111.636 217.61 118.316C218.02 121.116 216.6 122.756 214.85 124.636C211.343 128.369 208.58 132.536 206.56 137.136C206.53 137.205 206.484 137.266 206.425 137.313C206.366 137.36 206.296 137.391 206.222 137.405C206.148 137.419 206.072 137.414 206 137.392C205.928 137.369 205.863 137.329 205.81 137.276C200.343 131.769 195.03 126.049 189.87 120.116C186.26 115.966 186.48 111.846 187.08 106.576C187.867 99.5757 188.737 92.5757 189.69 85.5757C189.737 85.2424 189.887 85.189 190.14 85.4157C196.227 90.9157 202.47 96.199 208.87 101.266Z" fill="#F1B9B2"/>
<path d="M243.99 149.396C237.677 144.089 233.363 136.716 231.05 127.276C230.97 126.956 231.083 126.749 231.39 126.656C259.41 118.206 285.31 109.716 307.47 93.1258C314.77 87.6558 323.78 90.6358 331.86 93.1558C332.18 93.2558 332.29 93.4624 332.19 93.7758C326.41 111.366 321.04 127.806 310.72 142.506C296.33 163.016 262.7 165.146 243.99 149.396Z" fill="#F1B9B2"/>
<path d="M393.92 103.826C393.999 103.859 394.069 103.911 394.125 103.977C394.18 104.043 394.219 104.122 394.238 104.206C394.258 104.291 394.257 104.379 394.237 104.464C394.216 104.549 394.176 104.629 394.12 104.696C388.35 111.416 381.34 118.996 377.67 126.226C373.31 134.806 373.05 143.656 372.44 152.796C372.24 155.926 371.35 158.036 369.3 160.156C369.06 160.402 368.877 160.366 368.75 160.046C362.36 144.226 347.9 112.416 372.58 103.006C379.427 100.386 386.54 100.659 393.92 103.826Z" fill="#F1B9B2"/>
<path d="M443.21 149.346C444.36 140.366 443.71 132.626 438.15 125.366C429.32 113.826 414.1 110.236 400.19 110.916C400.096 110.923 400.002 110.898 399.925 110.845C399.847 110.792 399.79 110.713 399.762 110.622C399.734 110.531 399.738 110.433 399.772 110.343C399.806 110.253 399.869 110.176 399.95 110.126C419.26 98.4658 442.71 100.176 455.39 120.496C455.59 120.809 455.507 120.996 455.14 121.056L444.94 122.636C443.88 122.802 443.45 123.416 443.65 124.476C445.1 132.246 446.25 142.046 443.69 149.456C443.667 149.51 443.626 149.554 443.574 149.581C443.521 149.608 443.461 149.615 443.404 149.602C443.347 149.589 443.296 149.556 443.26 149.509C443.225 149.462 443.207 149.405 443.21 149.346Z" fill="#DC9073"/>
<path d="M267.17 167.836C267.99 169.242 266.687 169.832 263.26 169.606C263.184 169.599 263.108 169.614 263.039 169.646C262.97 169.679 262.912 169.73 262.869 169.793C262.826 169.856 262.801 169.929 262.796 170.005C262.791 170.081 262.806 170.157 262.84 170.226C262.913 170.392 263.07 170.486 263.31 170.506C266.837 170.792 270.393 170.902 273.98 170.836C274.057 170.834 274.133 170.855 274.198 170.897C274.263 170.938 274.314 170.998 274.346 171.069C274.377 171.139 274.386 171.218 274.373 171.294C274.359 171.37 274.323 171.44 274.27 171.496C273.916 171.869 273.363 172.106 272.61 172.206C271.376 172.366 269.106 172.566 265.8 172.806C265.56 172.826 265.42 172.959 265.38 173.206C265.37 173.263 265.374 173.322 265.391 173.377C265.408 173.433 265.437 173.484 265.477 173.526C265.516 173.569 265.565 173.602 265.619 173.622C265.674 173.643 265.732 173.651 265.79 173.646C267.643 173.479 268.943 173.959 269.69 175.086C251.26 177.536 229.93 178.126 212.62 170.526C191.65 161.326 174.78 140.436 173.73 116.576C173.724 116.468 173.752 116.361 173.81 116.27C173.868 116.179 173.953 116.108 174.053 116.067C174.153 116.026 174.264 116.018 174.369 116.043C174.474 116.068 174.569 116.124 174.64 116.206C183.38 126.139 192.506 135.772 202.02 145.106C204.033 147.079 206.043 148.416 208.05 149.116C208.692 149.341 209.397 149.309 210.017 149.026C210.636 148.742 211.121 148.23 211.37 147.596C214.177 140.422 217.87 133.726 222.45 127.506C222.49 127.447 222.547 127.402 222.613 127.376C222.68 127.35 222.752 127.344 222.822 127.359C222.891 127.374 222.955 127.409 223.004 127.46C223.054 127.511 223.087 127.576 223.1 127.646C228.26 151.386 243.38 164.776 267.17 167.836Z" fill="#F1B9B2"/>
<path d="M402.54 120.366C405.24 120.999 408.003 120.972 410.83 120.286C424.51 119.546 435.76 130.356 435.44 144.116C435.34 148.146 431.01 150.736 427.54 150.336C412.7 148.616 398.163 149.872 383.93 154.106C383.844 154.134 383.752 154.134 383.666 154.105C383.58 154.076 383.506 154.021 383.455 153.947C383.403 153.873 383.377 153.784 383.379 153.694C383.382 153.603 383.414 153.517 383.47 153.446C391.5 142.806 406.26 138.866 419.17 137.886C419.517 137.866 419.633 138.019 419.52 138.346L418.87 140.206C418.857 140.259 418.853 140.316 418.86 140.376C419.9 148.766 432.22 147.796 428.84 138.296C427.58 134.769 426.603 131.062 425.91 127.176C425.89 127.066 425.844 126.964 425.775 126.877C425.706 126.79 425.616 126.722 425.514 126.678C425.412 126.634 425.3 126.617 425.19 126.627C425.079 126.637 424.973 126.674 424.88 126.736C422.927 128.029 420.72 128.902 418.26 129.356C404.23 131.936 392.56 133.706 380.79 143.786C380.537 144.006 380.433 143.946 380.48 143.606C382.19 132.036 388.93 118.696 402.54 120.366Z" fill="#DC9073"/>
<path d="M124.14 162.216C124.118 162.212 124.098 162.202 124.081 162.187C124.064 162.172 124.053 162.153 124.047 162.132C124.042 162.111 124.043 162.09 124.051 162.071C124.058 162.052 124.072 162.036 124.09 162.026C131.61 157.256 139.71 154.676 148.14 152.026C159.57 148.456 162.84 138.946 165.9 128.536C165.92 128.46 165.964 128.393 166.027 128.345C166.089 128.298 166.165 128.273 166.244 128.274C166.322 128.275 166.398 128.302 166.459 128.352C166.52 128.401 166.563 128.469 166.58 128.546C172.27 151.066 185.48 165.556 205.37 176.836C205.67 177.002 205.79 177.256 205.73 177.596C203.09 192.526 200.79 207.556 197.08 222.246C195.247 229.512 193.337 235.089 191.35 238.976C182.41 256.516 162.89 267.866 145.96 276.246C145.593 276.426 145.493 276.329 145.66 275.956C156.96 251.016 164.18 224.976 164.83 197.846C165.14 184.606 159.43 171.176 147.15 165.916C140.8 163.196 131.89 162.836 124.14 162.216Z" fill="#F1B9B2"/>
<path d="M453.07 130.646C455.68 130.376 460.46 131.586 460.79 134.886C461.516 142.279 458.506 147.529 451.76 150.636C451.426 150.789 451.286 150.686 451.34 150.326C452.286 143.952 452.72 137.552 452.64 131.126C452.64 130.832 452.783 130.672 453.07 130.646Z" fill="#DC9073"/>
<path d="M341.16 149.146C334.81 147.316 324.18 143.616 325.07 135.136C325.095 134.898 325.211 134.679 325.394 134.524C325.576 134.37 325.811 134.291 326.05 134.306C331.963 134.686 337.753 135.739 343.42 137.466C343.546 137.503 343.653 137.587 343.72 137.7C343.787 137.813 343.808 137.947 343.78 138.076L341.69 148.826C341.637 149.126 341.46 149.232 341.16 149.146Z" fill="#57958A"/>
<path d="M368.65 200.746C352.06 185.296 345.79 162.636 351.64 140.716C351.671 140.592 351.742 140.482 351.842 140.402C351.941 140.323 352.065 140.279 352.192 140.276C352.32 140.274 352.445 140.314 352.547 140.39C352.65 140.466 352.725 140.573 352.76 140.696C361.3 168.266 372.07 203.496 407.52 204.456C413.89 204.636 421.52 202.826 428.3 201.606C435.5 200.316 440.84 204.976 444.72 210.496C444.764 210.558 444.788 210.632 444.789 210.709C444.79 210.785 444.768 210.86 444.726 210.924C444.684 210.987 444.624 211.037 444.553 211.066C444.482 211.095 444.405 211.102 444.33 211.086C439.59 210.099 434.807 209.856 429.98 210.356C424.24 210.946 417.38 213.646 411.62 214.936C396.17 218.386 379.6 210.946 368.65 200.746Z" fill="#F1B9B2"/>
<path d="M427.57 158.526C433.543 160.132 439.493 160.172 445.42 158.646C452.027 158.366 458.13 156.549 463.73 153.196C464.063 152.996 464.313 153.069 464.48 153.416L468.03 160.606C468.112 160.773 468.142 160.962 468.115 161.146C468.089 161.33 468.007 161.501 467.88 161.636C461.85 168.046 452.96 169.516 445 171.246C441.37 172.036 438.65 174.066 437.04 177.096C430.14 190.086 414.84 199.906 399.57 195.056C386.29 190.836 377.457 182.166 373.07 169.046C372.95 168.692 373.05 168.422 373.37 168.236C389.83 158.526 409.05 156.686 427.57 158.526Z" fill="#F1B9B2"/>
<path d="M67.86 193.346L66.95 184.366C66.9233 179.292 68.2133 175.042 70.82 171.616C81.1 158.116 103.11 156.076 117.66 163.016C118.147 163.249 118.13 163.436 117.61 163.576C110.26 165.536 98.42 166.246 93.06 174.466C92.8733 174.746 92.63 174.962 92.33 175.116C82.86 179.916 74.53 184.536 67.86 193.346Z" fill="#DC9073"/>
<path d="M269.69 175.086C268.943 173.959 267.643 173.479 265.79 173.646C265.732 173.651 265.674 173.643 265.62 173.622C265.565 173.602 265.517 173.569 265.477 173.526C265.437 173.484 265.408 173.433 265.391 173.377C265.374 173.322 265.371 173.263 265.38 173.206C265.42 172.959 265.56 172.826 265.8 172.806C269.107 172.566 271.377 172.366 272.61 172.206C273.363 172.106 273.917 171.869 274.27 171.496C274.323 171.44 274.359 171.37 274.373 171.294C274.386 171.218 274.377 171.139 274.346 171.069C274.315 170.998 274.263 170.938 274.198 170.897C274.133 170.855 274.057 170.834 273.98 170.836C270.393 170.902 266.837 170.792 263.31 170.506C263.07 170.486 262.913 170.392 262.84 170.226C262.806 170.157 262.791 170.081 262.796 170.005C262.801 169.929 262.826 169.856 262.869 169.793C262.912 169.73 262.97 169.679 263.039 169.647C263.108 169.614 263.184 169.6 263.26 169.606C266.687 169.832 267.99 169.242 267.17 167.836C273.977 168.516 280.833 168.216 287.74 166.936C288.22 166.849 288.28 166.966 287.92 167.286C282.667 171.939 276.59 174.539 269.69 175.086Z" fill="#DC9073"/>
<path d="M140.18 173.626L118.8 173.956C118.873 174.569 118.733 174.586 118.38 174.006C118.338 173.937 118.314 173.859 118.308 173.779C118.302 173.699 118.315 173.618 118.346 173.544C118.378 173.47 118.426 173.405 118.487 173.353C118.549 173.301 118.622 173.264 118.7 173.246C125.573 171.626 132.733 171.752 140.18 173.626Z" fill="#F2EEEB"/>
<path d="M140.18 173.626C148.373 174.292 153.35 179.102 155.11 188.056C156.757 196.389 157.067 204.812 156.04 213.326C156.033 213.395 156.005 213.46 155.959 213.512C155.914 213.564 155.853 213.6 155.785 213.615C155.718 213.631 155.647 213.625 155.583 213.598C155.52 213.571 155.466 213.525 155.43 213.466C148.51 202.766 138.03 195.056 127.11 188.776C123.08 186.456 120.34 178.476 118.8 173.956L140.18 173.626Z" fill="#DC9073"/>
<path d="M117.28 189.496C112.92 187.786 106.84 183.656 103.91 179.156C103.727 178.875 103.616 178.553 103.586 178.219C103.555 177.885 103.607 177.549 103.736 177.24C103.865 176.93 104.068 176.657 104.326 176.444C104.585 176.231 104.892 176.084 105.22 176.016L108.99 175.236C109.397 175.149 109.703 175.286 109.91 175.646L117.8 188.876C117.844 188.952 117.864 189.04 117.857 189.129C117.849 189.217 117.815 189.301 117.758 189.368C117.701 189.436 117.625 189.485 117.539 189.508C117.453 189.53 117.363 189.526 117.28 189.496Z" fill="#57958A"/>
<path d="M436.35 192.376C442.03 185.136 446.66 179.376 456.08 176.896C456.146 176.877 456.217 176.878 456.282 176.9C456.348 176.923 456.405 176.964 456.446 177.019C456.487 177.075 456.511 177.141 456.513 177.21C456.516 177.279 456.497 177.348 456.46 177.406C452.32 184.346 445.1 191.776 436.61 192.846C436.553 192.853 436.495 192.842 436.444 192.816C436.392 192.79 436.35 192.749 436.322 192.698C436.294 192.648 436.282 192.59 436.287 192.533C436.292 192.475 436.314 192.421 436.35 192.376Z" fill="#F1B9B2"/>
<path d="M233.34 184.726C233.472 184.735 233.6 184.777 233.713 184.846C233.827 184.916 233.921 185.011 233.99 185.125C234.058 185.238 234.099 185.367 234.108 185.499C234.116 185.632 234.093 185.764 234.04 185.886C233.45 187.246 232.82 188.866 231.74 189.936C225.067 196.502 218.773 203.586 212.86 211.186C212.737 211.344 212.573 211.468 212.387 211.543C212.201 211.618 211.998 211.643 211.799 211.615C211.6 211.586 211.412 211.506 211.254 211.381C211.096 211.257 210.974 211.093 210.9 210.906C210.66 210.286 210.57 209.429 210.63 208.336C211.123 199.289 212.23 190.319 213.95 181.426C214.023 181.032 214.25 180.896 214.63 181.016C220.717 183.002 226.953 184.239 233.34 184.726Z" fill="#57958A"/>
<path d="M273.78 183.716C284.82 177.966 291.25 185.706 297.89 193.116C298.263 193.529 298.173 193.769 297.62 193.836C287.967 195.022 278.273 195.406 268.54 194.986C268.22 194.972 268.073 194.806 268.1 194.486C268.44 190.266 269.72 185.826 273.78 183.716Z" fill="#57958A"/>
<path d="M85.0699 220.796C81.9099 220.766 69.5799 218.526 69.7899 213.626C70.3699 200.476 80.0799 189.916 91.7699 184.806C93.7699 183.932 95.5966 183.499 97.2499 183.506C97.6232 183.506 97.9099 183.666 98.1099 183.986C98.6366 184.846 98.4266 185.779 97.4799 186.786C87.9899 196.826 87.5199 210.686 97.9099 220.396C98.2632 220.722 98.1999 220.886 97.7199 220.886C93.4532 220.879 89.2366 220.849 85.0699 220.796Z" fill="#DC9073"/>
<path d="M66.95 184.366L67.8599 193.346C66.4799 195.679 65.0933 198.312 63.7 201.246C55.82 217.836 65.9599 228.306 82.4899 228.946C99.8299 229.616 111.77 229.276 126.31 231.236C134.363 232.316 141.833 234.969 148.72 239.196C149.013 239.369 149.12 239.622 149.04 239.956C146.067 252.789 141.687 265.072 135.9 276.806C134.87 278.896 132.67 280.376 130.55 280.576C112.74 282.236 94.67 276.606 83.68 261.486C80.04 256.486 75.95 248.856 69.7 246.326C63.0133 243.626 56.3366 240.899 49.6699 238.146C42.2399 235.066 31.7699 230.306 32.2699 220.556C32.8499 209.386 40.92 199.726 50.44 194.616C56.27 191.486 63.54 190.916 66.95 184.366Z" fill="#F1B9B2"/>
<path d="M243.52 184.996C249.493 185.162 255.33 184.992 261.03 184.486C262.083 184.386 262.413 184.826 262.02 185.806C256.967 198.359 253.32 211.302 251.08 224.636C251.013 225.036 250.83 225.099 250.53 224.826C240.17 215.116 241.02 197.666 243.43 185.076C243.432 185.054 243.443 185.033 243.46 185.019C243.476 185.004 243.498 184.996 243.52 184.996Z" fill="#57958A"/>
<path d="M106.63 217.966C97.2367 210.359 95.98 201.582 102.86 191.636C102.914 191.558 102.982 191.492 103.061 191.44C103.14 191.389 103.228 191.354 103.32 191.338C103.412 191.321 103.507 191.323 103.598 191.343C103.689 191.363 103.774 191.402 103.85 191.456C107.43 193.946 112.86 198.086 117.3 198.316C121.633 198.536 125.877 199.076 130.03 199.936C130.099 199.951 130.162 199.984 130.214 200.032C130.265 200.08 130.303 200.141 130.322 200.209C130.342 200.277 130.342 200.348 130.324 200.416C130.306 200.485 130.27 200.547 130.22 200.596C126.45 204.126 119.11 208.836 113.77 208.186C113.61 208.167 113.459 208.105 113.334 208.006C113.208 207.907 113.113 207.775 113.06 207.626C109.68 197.896 102.11 209.316 109.24 214.926C111.51 216.706 115 216.376 118.3 216.086C125.867 215.426 131.417 211.679 134.95 204.846C135.103 204.552 135.32 204.496 135.6 204.676C144.61 210.556 151.44 219.736 152.05 230.726C152.052 230.776 152.041 230.826 152.017 230.871C151.994 230.915 151.959 230.953 151.917 230.981C151.875 231.008 151.826 231.024 151.776 231.026C151.725 231.029 151.675 231.018 151.63 230.996C138.757 224.736 125.813 221.442 112.8 221.116C111.233 221.076 109.177 220.026 106.63 217.966Z" fill="#DC9073"/>
<path d="M334.6 218.096C333.94 205.666 335.96 196.096 349.08 191.636C349.467 191.502 349.777 191.599 350.01 191.926L354.54 198.166C354.793 198.519 354.783 198.862 354.51 199.196C348.75 206.286 342.99 213.386 335.38 218.486C334.893 218.812 334.633 218.682 334.6 218.096Z" fill="#57958A"/>
<path d="M370.53 214.096C370.903 214.476 370.877 214.826 370.45 215.146C361.9 221.436 353.97 229.536 344.17 234.136C344.124 234.158 344.072 234.167 344.02 234.161C343.969 234.155 343.921 234.135 343.881 234.102C343.841 234.07 343.811 234.026 343.795 233.977C343.779 233.928 343.777 233.876 343.79 233.826C346.45 223.106 351.693 213.882 359.52 206.156C359.705 205.973 359.949 205.86 360.21 205.836C360.47 205.812 360.732 205.879 360.95 206.026C364.423 208.392 367.617 211.082 370.53 214.096Z" fill="#57958A"/>
<path d="M224.14 237.316C224.64 237.382 225.14 237.516 225.64 237.716C225.927 237.836 226.023 238.042 225.93 238.336C221.5 252.436 215.29 264.216 202.25 272.286C186.83 281.826 174.3 288.886 161.78 300.076C150.25 310.376 136.69 322.846 122.83 325.656C116.6 326.916 108.74 326.406 102.09 326.306C101.77 326.299 101.663 326.142 101.77 325.836C103.73 320.182 105.907 315.529 108.3 311.876C111.77 306.586 120.79 304.296 125.32 301.106C138.92 291.532 152.987 282.689 167.52 274.576C172.6 271.742 179.163 266.712 187.21 259.486C199.2 248.716 203.47 234.816 206.88 219.636C206.902 219.541 206.952 219.455 207.024 219.389C207.096 219.323 207.187 219.281 207.283 219.268C207.38 219.255 207.478 219.272 207.565 219.316C207.652 219.36 207.724 219.43 207.77 219.516C211.3 226.246 215.57 236.176 224.14 237.316Z" fill="#F1B9B2"/>
<path d="M248.5 235.496C248.639 235.503 248.77 235.562 248.866 235.66C248.962 235.759 249.017 235.889 249.02 236.026C249.13 239.456 250.39 245.716 245.76 246.686C241.313 247.612 236.823 248.176 232.29 248.376C231.93 248.396 231.807 248.236 231.92 247.896C233.193 243.929 233.98 239.862 234.28 235.696C234.3 235.425 234.426 235.173 234.63 234.994C234.833 234.815 235.099 234.722 235.37 234.736L248.5 235.496Z" fill="#57958A"/>
<path d="M94.8398 296.626C69.9298 291.146 50.6899 270.826 45.2599 245.906C45.2512 245.866 45.2536 245.825 45.2666 245.787C45.2797 245.749 45.303 245.715 45.3339 245.689C45.3649 245.664 45.4023 245.647 45.4421 245.641C45.482 245.635 45.5227 245.64 45.5599 245.656C51.1665 248.269 56.9132 250.572 62.7998 252.566C66.5498 253.836 69.9099 256.026 72.2499 259.666C85.5699 280.346 101.08 288.586 125.65 289.746C125.719 289.749 125.786 289.774 125.842 289.816C125.897 289.859 125.938 289.917 125.958 289.984C125.979 290.051 125.979 290.122 125.958 290.188C125.936 290.255 125.895 290.313 125.84 290.356C116.62 297.376 106.39 299.166 94.8398 296.626Z" fill="#DC9073"/>
<path d="M407.36 317.716C401.1 315.316 377.49 326.726 369.86 330.726C369.367 330.986 369.25 330.869 369.51 330.376C375.877 318.462 384.117 308.096 394.23 299.276C395.35 298.296 396.17 297.119 396.69 295.746C396.837 295.346 396.75 295.009 396.43 294.736L393.65 292.386C393.54 292.293 393.405 292.235 393.261 292.217C393.118 292.199 392.971 292.223 392.84 292.286C389.293 293.966 386.23 296.266 383.65 299.186C373.92 310.196 365.21 321.976 359.99 334.776C358.26 339.026 350.12 343.786 346.25 346.236C345.977 346.409 345.88 346.339 345.96 346.026C349.587 332.492 353.387 319.006 357.36 305.566C358.11 303.016 357.03 301.256 354.56 300.656C354.053 300.532 353.519 300.592 353.051 300.824C352.583 301.057 352.211 301.446 352 301.926C351.32 303.486 350.19 305.316 349.8 306.886C346.133 321.479 341.663 336.762 336.39 352.736C335.1 356.666 331.77 358.826 326.74 362.026C326.533 362.159 326.437 362.102 326.45 361.856C327.763 340.562 333.127 320.379 342.54 301.306C343.047 300.279 342.86 299.152 341.98 297.926C341.813 297.699 341.603 297.516 341.35 297.376C341.057 297.209 340.793 296.996 340.56 296.736C340.26 296.416 340.307 296.156 340.7 295.956C353.607 289.536 366.883 283.989 380.53 279.316C380.857 279.202 381.117 279.292 381.31 279.586L383.33 282.556C383.455 282.743 383.642 282.879 383.859 282.939C384.075 283 384.306 282.981 384.51 282.886C397.437 276.886 410.943 272.702 425.03 270.336C425.397 270.269 425.523 270.416 425.41 270.776C422.23 281.026 418.05 291.636 416.34 302.266C416.311 302.43 416.342 302.6 416.426 302.745C416.51 302.889 416.643 302.999 416.8 303.056L420.63 304.396C420.721 304.427 420.804 304.476 420.875 304.54C420.947 304.604 421.005 304.682 421.046 304.768C421.087 304.855 421.11 304.949 421.114 305.044C421.118 305.14 421.103 305.236 421.07 305.326C414.5 323.746 407.61 341.436 396.27 357.546C393.61 361.326 388.53 365.156 383.78 368.296C377.967 372.149 372.413 376.352 367.12 380.906C366.527 381.419 365.583 381.856 364.29 382.216C351.137 385.862 339.163 383.056 328.37 373.796C328.204 373.653 328.071 373.476 327.979 373.277C327.887 373.078 327.839 372.862 327.838 372.643C327.838 372.424 327.884 372.207 327.974 372.008C328.064 371.808 328.195 371.63 328.36 371.486L334.33 366.306C334.591 366.08 334.915 365.94 335.259 365.905C335.602 365.869 335.948 365.939 336.25 366.106C343.85 370.316 351.85 375.036 360.57 376.686C360.708 376.712 360.851 376.696 360.979 376.641C361.108 376.586 361.216 376.493 361.29 376.376L363.37 373.146C363.643 372.719 363.55 372.399 363.09 372.186L341.85 362.386C341.755 362.341 341.673 362.274 341.61 362.191C341.547 362.108 341.504 362.011 341.487 361.908C341.469 361.805 341.476 361.699 341.508 361.599C341.54 361.5 341.596 361.409 341.67 361.336L346.21 356.816C346.331 356.695 346.483 356.61 346.65 356.57C346.818 356.529 346.994 356.535 347.16 356.586C360.68 360.832 374.52 362.362 388.68 361.176C388.88 361.156 389.074 361.098 389.251 361.004C389.428 360.909 389.584 360.781 389.71 360.626C390.717 359.339 391.263 357.852 391.35 356.166C391.37 355.779 391.187 355.566 390.8 355.526C378.2 354.126 365.64 353.906 353.24 351.936C352.86 351.876 352.813 351.719 353.1 351.466C367.27 339.136 386.71 330.026 404.78 323.876C407.507 322.949 408.56 321.119 407.94 318.386C407.867 318.059 407.673 317.836 407.36 317.716Z" fill="#98BEA7"/>
<path d="M201.39 284.576C201.306 284.507 201.239 284.419 201.195 284.32C201.15 284.22 201.13 284.112 201.135 284.003C201.139 283.894 201.17 283.788 201.223 283.693C201.276 283.598 201.35 283.517 201.44 283.456L216.8 273.106C217.113 272.892 217.42 272.899 217.72 273.126C226.92 280.126 228.84 290.106 227.94 301.136C227.907 301.522 227.72 301.626 227.38 301.446C218.147 296.699 209.483 291.076 201.39 284.576Z" fill="#57958A"/>
<path d="M176.58 299.826C176.553 299.811 176.531 299.79 176.513 299.766C176.496 299.741 176.485 299.713 176.48 299.683C176.475 299.653 176.477 299.622 176.486 299.593C176.494 299.564 176.509 299.538 176.53 299.516C180.74 294.866 187.16 291.816 192.65 288.916C192.937 288.769 193.206 288.789 193.46 288.976C204.087 296.816 210.19 307.349 211.77 320.576C211.781 320.684 211.762 320.794 211.713 320.891C211.664 320.989 211.588 321.07 211.495 321.126C211.401 321.182 211.293 321.209 211.184 321.206C211.075 321.202 210.97 321.167 210.88 321.106C199.807 313.426 188.373 306.332 176.58 299.826Z" fill="#57958A"/>
<path d="M318.82 359.266L316.47 361.316C316.21 361.542 315.926 361.576 315.62 361.416C312.02 359.576 308.873 356.792 306.18 353.066C306.92 349.666 307.76 345.912 308.7 341.806C311.186 330.946 315.853 321.202 322.7 312.576C326.42 307.886 328.59 305.016 333.14 302.586C333.187 302.561 333.241 302.552 333.294 302.559C333.346 302.566 333.396 302.589 333.435 302.625C333.474 302.661 333.502 302.708 333.513 302.76C333.525 302.812 333.52 302.866 333.5 302.916C325.73 321.276 323.1 340.006 318.82 359.266Z" fill="#98BEA7"/>
<path d="M150.88 380.916C149.3 382.736 149.387 384.252 151.14 385.466C157.667 389.959 164.35 395.262 171.19 401.376C172.397 402.456 172.207 402.826 170.62 402.486C158.1 399.799 145.127 397.182 131.7 394.636C127.12 393.776 125.3 397.816 129.97 399.876C143.78 405.946 159.22 405.556 172.95 411.626C173.29 411.779 173.343 411.996 173.11 412.276C169.68 416.386 161.98 418.936 157.21 421.656C157.085 421.725 156.982 421.827 156.91 421.95C156.838 422.073 156.8 422.213 156.8 422.356V424.866C156.8 425.246 156.99 425.426 157.37 425.406C166.677 424.826 174.73 421.419 181.53 415.186C181.648 415.08 181.788 415.004 181.939 414.964C182.091 414.924 182.249 414.921 182.4 414.956L192.51 417.306C193.01 417.419 193.107 417.682 192.8 418.096C190.39 421.256 184.01 424.266 180.52 426.446C178.25 427.856 177.48 429.606 178.47 432.036C178.61 432.369 178.857 432.516 179.21 432.476C187.21 431.566 193.51 426.666 199.12 421.306C199.387 421.052 199.7 420.946 200.06 420.986C202.773 421.299 205.323 422.116 207.71 423.436C207.803 423.487 207.885 423.556 207.951 423.639C208.016 423.722 208.065 423.817 208.094 423.919C208.123 424.02 208.131 424.126 208.119 424.23C208.106 424.334 208.072 424.435 208.02 424.526C192.78 451.226 154.49 434.986 133.48 426.576C133.18 426.449 133.083 426.232 133.19 425.926L135.22 420.286C135.333 419.972 135.24 419.746 134.94 419.606C120.56 412.826 109.81 407.766 98.51 399.206C98.4425 399.153 98.3887 399.085 98.3534 399.007C98.3181 398.929 98.3022 398.843 98.3071 398.758C98.3121 398.672 98.3376 398.589 98.3817 398.516C98.4257 398.442 98.4869 398.38 98.56 398.336L124.77 382.406C125.161 382.167 125.484 381.832 125.708 381.433C125.932 381.034 126.05 380.584 126.05 380.126V372.326C126.05 371.946 126.24 371.769 126.62 371.796C134.19 372.376 141.95 374.786 149.04 370.966C149.194 370.884 149.323 370.761 149.413 370.612C149.503 370.462 149.55 370.29 149.55 370.116V364.566C149.55 364.072 149.793 363.849 150.28 363.896C184.29 366.746 211.99 372.346 210.56 414.516C210.547 414.862 210.37 414.992 210.03 414.906C206.13 413.926 201.76 413.636 200.44 409.016C196.94 396.716 192.223 385.832 186.29 376.366C184.557 373.606 181.83 372.016 178.11 371.596C177.803 371.562 177.653 371.699 177.66 372.006C177.68 374.179 177.97 375.706 178.53 376.586C185.003 386.752 190.073 397.592 193.74 409.106C193.847 409.426 193.733 409.546 193.4 409.466C187.86 408.066 183.41 408.016 179.75 403.016C172.65 393.336 164.01 385.786 153.83 380.366C153.347 380.11 152.793 380.025 152.257 380.125C151.721 380.225 151.235 380.503 150.88 380.916Z" fill="#98BEA7"/>
</svg>
