<svg width="491" height="192" viewBox="0 0 491 192" fill="none" xmlns="http://www.w3.org/2000/svg">
<path fill-rule="evenodd" clip-rule="evenodd" d="M10.6239 130.583C10.6355 130.622 10.6529 130.66 10.6758 130.694C10.7179 130.757 10.7766 130.807 10.8451 130.839C10.8668 130.849 10.8895 130.857 10.913 130.864C11.0107 130.89 11.1154 130.881 11.2083 130.838C11.3013 130.796 11.3764 130.722 11.4201 130.63C21.7535 107.323 33.2968 84.5667 46.0501 62.36C54.7034 47.2867 64.6701 33.1467 75.9501 19.94C81.4768 13.4733 87.4267 8.26668 93.8001 4.32002C108.64 -4.87999 122.5 3.32997 117.91 20.85C111.52 45.22 95.9302 65.4801 77.2101 82.01C77.0926 82.1139 77.0107 82.252 76.9758 82.4048C76.9408 82.5577 76.9547 82.7177 77.0154 82.8623C77.0761 83.0069 77.1805 83.1287 77.3141 83.2108C77.3822 83.2527 77.4562 83.2832 77.533 83.3015C77.6069 83.319 77.6835 83.3255 77.7601 83.32C85.6401 82.76 94.8001 83.5601 100.3 89.96C106.71 97.4 109.55 104.13 106.48 113.66C98.3534 138.86 84.8468 160.793 65.9601 179.46C56.3401 188.98 39.0101 199.48 29.2201 183.28C19.1001 166.53 75.7201 121.95 87.2101 113.45C87.9776 112.883 88.808 112.31 89.6567 111.724C95.0336 108.015 101.148 103.796 96.7001 97.31C90.8501 88.77 75.6201 91.9301 67.6801 94.96C65.0716 95.9525 62.123 97.4996 59.1435 99.063L59.142 99.0637C57.4389 99.9574 55.7257 100.856 54.0601 101.66C53.7734 101.8 53.4734 101.83 53.1601 101.75C46.0601 99.97 48.6001 94.05 52.5501 90.81C77.9201 69.96 101.95 48.4201 110.24 15.51C111.22 11.6101 109.78 7.58003 105 9.73C96.5601 13.53 89.2068 19.0234 82.9401 26.21C72.7468 37.9034 63.7568 50.2767 55.9701 63.33C40.2301 89.75 26.3601 117.58 14.5601 145.99C12.6101 150.7 7.3401 158.01 2.5001 149.92C0.0851263 145.889 1.0861 136.488 1.68193 130.892C1.70537 130.672 1.72816 130.458 1.7501 130.25C4.3701 105.13 9.58012 80.56 17.3801 56.54C22.2535 41.5267 27.1134 26.5067 31.9601 11.48C32.2601 10.54 32.9601 10.08 34.0601 10.1C40.8601 10.19 39.1501 18.6201 37.8801 22.52C33.4268 36.2267 29.0401 49.95 24.7201 63.69C17.8701 85.48 13.3101 107.79 10.6101 130.41C10.6023 130.469 10.6073 130.528 10.6239 130.583ZM38.7401 182.65C48.4801 186.12 66.9201 165.53 72.1601 158.7C81.2134 146.927 88.7134 134.173 94.6601 120.44C94.6878 120.374 94.6947 120.301 94.6796 120.231C94.6645 120.161 94.6283 120.097 94.5762 120.05C94.524 120.002 94.4585 119.972 94.3892 119.965C94.3199 119.958 94.2502 119.974 94.1901 120.01C92.3368 121.083 90.1768 122.653 87.7101 124.72C70.2301 139.37 56.2801 151.14 43.3101 167.07C40.1901 170.903 38.0935 175.04 37.0201 179.48C36.8633 180.128 36.9524 180.81 37.2702 181.396C37.5879 181.982 38.1117 182.428 38.7401 182.65ZM313.03 136.01C313.022 135.931 312.989 135.855 312.937 135.795C312.885 135.735 312.815 135.692 312.738 135.672C312.66 135.652 312.579 135.657 312.504 135.685C312.46 135.702 312.419 135.726 312.384 135.757C312.36 135.779 312.338 135.803 312.32 135.83C304.44 147.257 296.243 158.383 287.73 169.21C285.22 172.41 277.8 179.69 273.41 178.85C265.91 177.42 263.51 167.9 263.45 161.17C263.323 146.757 264.99 132.527 268.45 118.48C269.15 115.653 268.726 113.2 267.18 111.12C266.937 110.796 266.805 110.402 266.804 109.997C266.802 109.592 266.93 109.197 267.17 108.87C270.27 104.65 272.45 100.65 274.16 95.31C281.77 71.5401 291.26 46.59 304.48 23.9C304.491 23.8815 304.5 23.8624 304.509 23.8428C304.518 23.8217 304.526 23.7999 304.532 23.7778C304.547 23.7264 304.554 23.6729 304.553 23.6189C304.551 23.5203 304.523 23.424 304.47 23.3405C304.418 23.2571 304.343 23.1896 304.255 23.1454C304.225 23.1306 304.195 23.1187 304.163 23.1096C304.101 23.0915 304.035 23.0848 303.97 23.09C279.803 24.9434 255.646 27.58 231.5 31C227.06 31.63 225.71 32.2901 223.79 36.56C213.6 59.1101 206.78 85.4301 200.43 110.19C200.385 110.363 200.384 110.544 200.428 110.717C200.471 110.89 200.558 111.05 200.68 111.18C200.801 111.311 200.954 111.409 201.124 111.465C201.293 111.521 201.474 111.533 201.65 111.5C213.603 109.34 225.536 107.24 237.45 105.2C238.763 104.973 240.923 103.797 243.93 101.67C244.058 101.581 244.209 101.53 244.365 101.525C244.522 101.52 244.676 101.56 244.81 101.64C253.31 106.83 246.84 112.29 240.59 113.39C227.47 115.71 214.353 118.057 201.24 120.43C199.033 120.83 197.627 122.307 197.02 124.86C192.733 143.107 188.286 161.31 183.68 179.47C181.74 187.08 174 183.25 175.3 177.36C179.187 159.807 183.176 142.29 187.27 124.81C187.303 124.669 187.304 124.522 187.272 124.381C187.241 124.24 187.177 124.108 187.086 123.995C186.996 123.882 186.88 123.791 186.749 123.73C186.618 123.668 186.475 123.638 186.33 123.64L177.07 123.8C176.911 123.803 176.754 123.842 176.613 123.913C176.471 123.984 176.347 124.085 176.25 124.21C167.77 135.01 158.587 143.917 148.7 150.93C135.38 160.38 122 152.17 123.69 136.25C124.94 124.51 127.49 105.85 134.7 96.21C137.36 92.66 141.35 95.64 142.52 98.6C142.642 98.9155 142.642 99.2619 142.52 99.57C137.993 111.003 134.7 122.76 132.64 134.84C132.07 138.2 132.02 141.51 132.84 144.53C133.005 145.139 133.398 145.66 133.936 145.986C134.475 146.312 135.117 146.417 135.73 146.28C139.883 145.36 143.53 143.57 146.67 140.91C157.643 131.617 167.757 120.82 177.01 108.52C178.65 106.347 180.81 104.307 183.49 102.4C183.559 102.35 183.635 102.31 183.714 102.281C183.786 102.255 183.86 102.237 183.937 102.229C184.098 102.211 184.261 102.236 184.41 102.3C186.643 103.247 188.133 104.86 188.88 107.14C188.989 107.474 188.968 107.838 188.82 108.16C187.82 110.28 186.437 112.117 184.67 113.67C184.587 113.747 184.533 113.85 184.518 113.962C184.502 114.074 184.526 114.188 184.585 114.284C184.644 114.381 184.734 114.454 184.841 114.492C184.86 114.498 184.88 114.504 184.9 114.508C184.92 114.513 184.94 114.516 184.96 114.517C185.031 114.524 185.102 114.514 185.17 114.49C189.92 112.73 191.69 109.44 192.8 104.32C197.993 80.52 205.153 57.3267 214.28 34.74C214.319 34.6453 214.337 34.5434 214.333 34.4411C214.33 34.3845 214.321 34.3286 214.306 34.2745C214.293 34.2307 214.276 34.1881 214.255 34.1474C214.238 34.1123 214.217 34.0789 214.194 34.0475C214.156 33.9971 214.112 33.9518 214.063 33.9127C213.983 33.8494 213.889 33.8041 213.79 33.78C213.363 33.6867 212.853 33.7 212.26 33.82C200.153 36.2334 189.9 38.4733 181.5 40.54C178.653 41.24 176.553 40.4733 175.2 38.24C175.118 38.1043 175.064 37.9529 175.042 37.7948C175.019 37.6368 175.029 37.4753 175.07 37.32C175.403 36.0667 176.193 35.2633 177.44 34.91C189.666 31.4434 202.023 28.4867 214.51 26.04C219.436 25.0667 221.432 19.1074 223.137 14.0186L223.139 14.0118C223.43 13.1427 223.713 12.299 224 11.51C225.88 6.33003 230.98 10.65 232.08 14.14C232.18 14.4668 232.183 14.7901 232.09 15.11L229.7 22.98C229.678 23.0492 229.674 23.123 229.689 23.194C229.696 23.2221 229.705 23.2494 229.716 23.2755C229.734 23.3154 229.759 23.3525 229.788 23.3853C229.838 23.4398 229.901 23.4807 229.971 23.5043C229.993 23.5116 230.015 23.5171 230.037 23.5209C230.088 23.5295 230.139 23.5293 230.19 23.52C231.253 23.3074 232.366 23.2608 233.448 23.2153C234.301 23.1796 235.134 23.1446 235.91 23.03C262.23 19.2234 286.176 16.7001 307.75 15.46C309.156 15.3801 310.043 15.1234 310.41 14.69C310.706 14.3438 311.035 13.9472 311.392 13.5172C315.32 8.77968 322.612 -0.0136564 326.71 9.86C328.73 14.7301 319.55 34.27 317.2 38.95C308.687 55.91 298.983 72.92 288.09 89.98C275.83 109.17 273.06 136.39 271.71 158.71C271.5 162.26 271.81 165.39 272.85 168.51C272.904 168.675 272.997 168.824 273.121 168.945C273.245 169.066 273.397 169.155 273.563 169.204C273.73 169.253 273.905 169.261 274.076 169.228C274.246 169.194 274.405 169.119 274.54 169.01C276.92 167.083 278.917 165.093 280.53 163.04C294.11 145.727 308.707 125.82 324.32 103.32C327.32 98.9901 338.34 89.7701 341.29 100.28C341.374 100.582 341.395 100.897 341.35 101.208C341.306 101.518 341.198 101.815 341.033 102.082C340.867 102.349 340.648 102.579 340.39 102.757C340.131 102.936 339.838 103.06 339.53 103.12C334.74 104.05 332.44 106.64 329.97 111.06C329.535 111.834 329.087 112.615 328.637 113.4L328.634 113.405L328.633 113.406C326.607 116.938 324.528 120.559 323.4 124.1C322 128.47 318.59 143.25 327.47 142.42C334.27 141.79 337.66 133.45 337.75 127.68C337.814 123.738 335.54 119.712 333.534 116.16C333.356 115.846 333.181 115.536 333.01 115.23C332.766 114.792 332.636 114.3 332.631 113.799C332.626 113.298 332.746 112.803 332.98 112.36C333.215 111.917 333.556 111.54 333.973 111.262C334.391 110.984 334.871 110.815 335.37 110.77C337.799 110.554 340.11 110.483 342.384 110.413H342.385C347.891 110.244 353.174 110.081 359.36 107.88C365.613 105.653 371.893 103.53 378.2 101.51C378.533 101.403 378.787 101.203 378.96 100.91C379.12 100.64 379.289 100.354 379.466 100.054C382.149 95.5056 386.695 87.7984 391.33 86.56C394.18 85.8001 398.59 90.1101 396.19 92.95L395.678 93.559C391.804 98.1645 388.653 101.91 385.97 107.18C380.77 117.44 370.77 142.89 375.4 153.94C375.507 154.193 375.672 154.417 375.881 154.594C376.091 154.77 376.34 154.895 376.607 154.957C376.874 155.02 377.152 155.018 377.419 154.953C377.685 154.887 377.932 154.759 378.14 154.58C389.44 144.75 398.19 129.78 405.09 116.64C408.8 109.56 415.01 115.86 413.8 120.94C411.933 128.76 412.72 136.147 416.16 143.1C418.08 146.99 422.6 147.08 425.85 144.89C435.57 138.34 437.35 117.8 437.66 106.67C437.86 99.71 443.91 103.1 446.16 106.7C448.006 109.653 450.453 111.75 453.5 112.99C465.388 117.815 472.379 112.854 481.033 106.714L481.036 106.712C481.815 106.159 482.608 105.596 483.42 105.03C483.851 104.729 484.355 104.548 484.88 104.504C485.405 104.46 485.933 104.555 486.41 104.78C488.34 105.69 491.69 108.76 489.45 111.19C477.67 123.99 463.877 126.723 448.07 119.39C447.845 119.287 447.599 119.236 447.351 119.241C447.104 119.246 446.861 119.307 446.641 119.42C446.421 119.533 446.23 119.694 446.083 119.892C445.935 120.089 445.835 120.318 445.79 120.56C445.662 121.236 445.537 121.911 445.412 122.583C443.32 133.827 441.337 144.489 431.6 151.83C419.29 161.12 407.86 148.95 405.2 137.48C405.168 137.343 405.096 137.218 404.994 137.12C404.893 137.022 404.765 136.956 404.626 136.93C404.487 136.903 404.344 136.918 404.213 136.971C404.083 137.024 403.97 137.114 403.89 137.23C403.382 137.965 402.77 138.888 402.07 139.946C396.198 148.805 384.07 167.106 374.44 163.3C358.51 156.99 368.85 124.29 373.06 113.35C373.079 113.3 373.09 113.249 373.093 113.196C373.095 113.149 373.092 113.102 373.081 113.056C373.059 112.958 373.009 112.868 372.936 112.799C372.863 112.73 372.772 112.683 372.673 112.665C372.574 112.648 372.472 112.66 372.38 112.7C364.62 116.067 356.457 118.3 347.89 119.4C345.71 119.69 345.34 120.7 345.77 122.73C347.697 131.77 345.796 139.407 340.07 145.64C329.85 156.76 314.61 149.93 313.03 136.01ZM315.1 24.22C315.066 24.2334 315.033 24.2434 315 24.25C314.866 24.2882 314.754 24.3706 314.69 24.48C307.517 36.3933 301.413 48.8334 296.38 61.8C296.24 62.16 296.283 62.28 296.51 62.16C296.583 62.1267 296.64 62.07 296.68 61.99C303.073 49.5034 309.463 36.9767 315.85 24.41C315.889 24.3331 315.905 24.2461 315.894 24.1604C315.892 24.1446 315.889 24.129 315.885 24.1137C315.869 24.0455 315.836 23.9823 315.789 23.9293C315.732 23.8646 315.657 23.8186 315.573 23.7973C315.489 23.776 315.401 23.7805 315.32 23.81C315.24 23.8367 315.197 23.9301 315.19 24.09C315.183 24.1568 315.153 24.2 315.1 24.22ZM147.933 84.6386C145.947 86.7822 142.318 86.6492 139.826 84.3414C137.334 82.0337 136.923 78.4251 138.908 76.2814C140.893 74.1378 144.522 74.2708 147.014 76.5786C149.507 78.8864 149.918 82.4949 147.933 84.6386Z" fill="#131825"/>
</svg>
